<svg enable-background="new 0 0 420.8 420.8" viewBox="0 0 420.8 420.8" xmlns="http://www.w3.org/2000/svg"><path d="m401.2 204.4h-33.4c13.9-31.6 12.4-57.1 7.1-74.4-9-30.8-39.4-64.2-84.5-64.2-12 0-24 2.3-36.4 6.8-21.4 7.9-35.7 16.5-42.1 21-6.4-4.5-20.3-13.1-42.1-21-12.4-4.5-24.8-6.8-36.4-6.8-45.1 0-75.5 33.4-84.5 64.2-5.3 18.4-7.1 46.2 10.5 81.1h-40.6c-3.4 0-6 2.6-6 6s2.6 6 6 6h47.7c1.9 3.4 4.1 6.8 6.8 10.1 39.1 56.3 124 117.6 139.4 121.3v.4s.4 0 .8-.4h1.1v-.4c13.1-6.4 94.7-59 137.5-121.3 4.1-5.6 7.5-11.3 10.5-16.9h39.4c3.4 0 6-2.6 6-6 0-3.3-3.4-5.5-6.8-5.5zm-60.1 22.2c-39.8 58.2-113.1 105.2-128.9 115.3-16.2-10.1-89-57.5-129.2-115.3-.8-1.1-1.5-2.3-2.3-3.4h55.3c2.3 0 4.5-1.1 5.6-3.4l25.2-49.6 39.4 101.1c.8 2.3 3.4 3.8 5.6 3.8h.4c2.6 0 4.9-1.9 5.6-4.5l34.6-118.3 18.4 59.7c.8 2.3 2.6 3.8 4.9 4.1s4.5-.8 6-2.6l14.7-21.4 12.4 21c1.1 1.9 3 3 5.3 3h33.8c-2.3 3.7-4.5 7.1-6.8 10.5zm13.6-22.2h-36.8l-15.4-26.3c-1.1-1.9-3-3-5.3-3s-4.1.8-5.3 2.6l-12.8 18.8-20.7-67.2c-.8-2.6-3.4-4.1-6-4.5-2.6 0-5.3 1.9-6 4.5l-34.9 120.6-37.9-96.9c-.8-2.3-3-3.8-5.3-3.8-2.6 0-4.5 1.1-5.6 3.4l-29.7 58.2h-59.7c-15-27.4-19.2-53.7-12.4-77.4 7.9-26.7 33.8-55.2 72.9-55.2 10.5 0 21.4 2.3 32.3 6 27.4 10.1 42.1 21.8 42.5 21.8 2.3 1.9 5.3 1.9 7.5 0 0 0 14.7-11.6 42.5-21.8 10.9-4.1 21.8-6 32.3-6 38.7 0 65 28.6 72.9 55.2 6.3 21.8 2.9 45.8-9.1 71z" stroke="#000" stroke-miterlimit="10" stroke-width="7"/></svg>