<svg enable-background="new 0 0 512 512" viewBox="0 0 512 512" xmlns="http://www.w3.org/2000/svg"><path d="m430.9 467.4v-186.4h-61.5v-19.2h5.8c9.5 0 17.3-7.8 17.3-17.3s-7.8-17.3-17.3-17.3h-6c-2.1-31.1-21.3-61.7-55.8-88.9-21.8-17.2-43.4-28.1-51.6-32v-23.7c17.4-2.8 30.8-17.9 30.8-36.1v-7.7h-11.6c0 9.5-7.8 17.3-17.3 17.3s-17.3-7.8-17.3-17.3 7.8-17.3 17.3-17.3v-11.5h-7.7c-20.1 0-36.5 16.4-36.5 36.5 0 18.2 13.3 33.3 30.8 36.1v23.7c-8.2 3.9-29.8 14.9-51.6 32.2-34.5 27.3-53.7 57.8-55.8 88.7h-6c-9.5 0-17.3 7.8-17.3 17.3s7.8 17.3 17.3 17.3h5.8v19.2h-61.6v186.4h-30.7v34.6h411.3v-34.6zm-199.9-420.9c0-5.4 1.7-10.4 4.7-14.5-.5 2.2-.8 4.5-.8 6.8 0 15.9 12.9 28.8 28.8 28.8 2.4 0 4.6-.3 6.8-.8-4.1 2.9-9.1 4.7-14.5 4.7-13.8 0-25-11.2-25-25zm25 69.8c14.9 7 96.8 48.4 101.6 110.9h-203.2c4.8-62.1 86.7-103.8 101.6-110.9zm-119.2 133.9c-3.2 0-5.8-2.6-5.8-5.8s2.6-5.8 5.8-5.8h238.3c3.2 0 5.8 2.6 5.8 5.8s-2.6 5.8-5.8 5.8zm221.1 11.6v19.2h-203.8v-19.2zm-265.3 30.7h326.7v174.9h-19.2v-109.5h-30.8v-30.8h-57.7v140.3h-19.2v-140.3h-73v140.3h-19.2v-140.3h-57.7v30.8h-30.8v109.5h-19.1zm296 76.9v98h-65.3v-128.8h34.6v30.8zm-107.6-30.8v128.8h-50v-128.8zm-92.3 0v128.8h-65.3v-98h30.8v-30.8zm261.4 151.9h-388.2v-11.5h388.2z" stroke="#000" stroke-miterlimit="10" stroke-width="5"/></svg>