<svg enable-background="new 0 0 512 512" viewBox="0 0 512 512" xmlns="http://www.w3.org/2000/svg"><path d="m383.8 251.7h33.8c7.6 0 13.9-6.2 13.9-13.9v-33.8c0-7.6-6.2-13.9-13.9-13.9h-33.8c-7.6 0-13.9 6.2-13.9 13.9v33.8c0 7.7 6.2 13.9 13.9 13.9zm.3-47.3h33.1v33.1h-33.1zm-.3 137.2h33.8c7.6 0 13.9-6.2 13.9-13.9v-33.8c0-7.6-6.2-13.9-13.9-13.9h-33.8c-7.6 0-13.9 6.2-13.9 13.9v33.8c0 7.7 6.2 13.9 13.9 13.9zm.3-47.3h33.1v33.1h-33.1zm-96.8-42.6h33.8c7.6 0 13.9-6.2 13.9-13.9v-33.8c0-7.6-6.2-13.9-13.9-13.9h-33.8c-7.6 0-13.9 6.2-13.9 13.9v33.8c.1 7.7 6.3 13.9 13.9 13.9zm.4-47.3h33.1v33.1h-33.1zm-159.5 161.4h-33.8c-7.6 0-13.9 6.2-13.9 13.9v33.8c0 7.6 6.2 13.9 13.9 13.9h33.8c7.6 0 13.9-6.2 13.9-13.9v-33.8c0-7.7-6.2-13.9-13.9-13.9zm-.3 47.3h-33.1v-33.1h33.1zm.3-222.9h-33.8c-7.6 0-13.9 6.2-13.9 13.9v33.8c0 7.6 6.2 13.9 13.9 13.9h33.8c7.6 0 13.9-6.2 13.9-13.9v-33.9c0-7.6-6.2-13.8-13.9-13.8zm-.3 47.3h-33.1v-33.1h33.1zm159.4 102h33.8c7.6 0 13.9-6.2 13.9-13.9v-33.8c0-7.6-6.2-13.9-13.9-13.9h-33.8c-7.6 0-13.9 6.2-13.9 13.9v33.8c.1 7.7 6.3 13.9 13.9 13.9zm.4-47.3h33.1v33.1h-33.1zm150.8-246h-30.3v-10.9c0-11.9-9.7-21.6-21.6-21.6h-3.3c-11.9 0-21.6 9.7-21.6 21.6v10.9h-211.4v-10.9c0-11.9-9.7-21.6-21.6-21.6h-3.3c-11.9 0-21.6 9.7-21.6 21.6v10.9h-30.3c-19.6 0-35.5 15.9-35.5 35.5v381c0 19.6 15.9 35.5 35.5 35.5h365c19.6 0 35.5-15.9 35.5-35.5v-381c0-19.6-15.9-35.5-35.5-35.5zm-62.6-10.9c0-4.1 3.3-7.4 7.4-7.4h3.3c4.1 0 7.4 3.3 7.4 7.4v10.9h-18v-10.9zm-257.8 0c0-4.1 3.3-7.4 7.4-7.4h3.3c4.1 0 7.4 3.3 7.4 7.4v10.9h-18zm341.7 427.5c0 11.7-9.6 21.3-21.3 21.3h-365c-11.7 0-21.3-9.6-21.3-21.3 5.9 4.5 13.3 7.1 21.3 7.1h287.7c9.5 0 18.4-3.7 25.1-10.4l73.4-73.4v76.7zm-80.6-16.2c.6-2.3.9-4.7.9-7.2v-47.4c0-8.9 7.3-16.2 16.2-16.2h47.4c2.5 0 4.9-.3 7.2-.9zm80.6-299h-302.4c-3.9 0-7.1 3.2-7.1 7.1s3.2 7.1 7.1 7.1h302.4v183.7c0 8.9-7.3 16.2-16.2 16.2h-47.4c-16.8 0-30.4 13.6-30.4 30.4v47.4c0 8.9-7.3 16.2-16.2 16.2h-276.1c-11.8 0-21.3-9.6-21.3-21.3v-272.6h76.8c3.9 0 7.1-3.2 7.1-7.1s-3.2-7.1-7.1-7.1h-76.8v-65.9c0-11.8 9.6-21.3 21.3-21.3h30.3v20.9c0 11.9 9.7 21.6 21.6 21.6 3.9 0 7.1-3.2 7.1-7.1s-3.2-7.1-7.1-7.1c-4.1 0-7.4-3.3-7.4-7.4v-20.9h243.6v20.9c0 11.9 9.7 21.6 21.6 21.6 3.9 0 7.1-3.2 7.1-7.1s-3.2-7.1-7.1-7.1c-4.1 0-7.4-3.3-7.4-7.4v-20.9h62.6c11.8 0 21.3 9.6 21.3 21.3zm-331.6 130.4h-33.8c-7.6 0-13.9 6.2-13.9 13.9v33.8c0 7.6 6.2 13.9 13.9 13.9h33.8c7.6 0 13.9-6.2 13.9-13.9v-33.8c0-7.7-6.2-13.9-13.9-13.9zm-.3 47.3h-33.1v-33.1h33.1zm63-73.6h33.8c7.6 0 13.9-6.2 13.9-13.9v-33.8c0-7.6-6.2-13.9-13.9-13.9h-33.8c-7.6 0-13.9 6.2-13.9 13.9v33.8c0 7.7 6.2 13.9 13.9 13.9zm.3-47.3h33.1v33.1h-33.1zm96.5 208.7c-.2-3.8-3.3-6.8-7.1-6.8-3.9 0-7.1 3.2-7.1 7.1 0 7.6 6.2 13.9 13.9 13.9h33.8c7.6 0 13.9-6.2 13.9-13.9v-33.8c0-7.6-6.2-13.9-13.9-13.9h-33.8c-7.6 0-13.9 6.2-13.9 13.9v9.7c0 3.9 3.2 7.1 7.1 7.1s7.1-3.2 7.1-7.1v-9.3h33.1v33.1zm-96.8-73.6h33.8c7.6 0 13.9-6.2 13.9-13.9v-33.8c0-7.6-6.2-13.9-13.9-13.9h-33.8c-7.6 0-13.9 6.2-13.9 13.9v33.8c0 7.7 6.2 13.9 13.9 13.9zm.3-47.3h33.1v33.1h-33.1zm-.3 135.1h33.8c7.6 0 13.9-6.2 13.9-13.9v-33.8c0-7.6-6.2-13.9-13.9-13.9h-33.8c-7.6 0-13.9 6.2-13.9 13.9v33.8c0 7.7 6.2 13.9 13.9 13.9zm.3-47.3h33.1v33.1h-33.1z" stroke="#000" stroke-miterlimit="10" stroke-width="5"/></svg>