<svg enable-background="new 0 0 512 512" viewBox="0 0 512 512" xmlns="http://www.w3.org/2000/svg"><g stroke="#000" stroke-miterlimit="10" stroke-width="5"><path d="m496.3 413.3c.4-1.5.7-3.1.7-4.7v-304c0-7.7-5.2-14.5-12.7-16.5l-224-59.2c-2.8-.7-5.8-.8-8.7 0l-223.9 59.1c-7.5 2-12.7 8.8-12.7 16.5v304.1c0 1.6.2 3.2.7 4.7-1.9 4 .4 8.7 4.6 9.8 26.4 7 206.3 54.6 233.9 61.9 1.2.3 2.4.3 3.6 0 6.6-1.8 222.6-58.9 233.9-61.9 4.2-1.1 6.5-5.8 4.6-9.8zm-247.4-187.6-32.7 1.2v-23.3l32.7-2.7zm0-103.4v26.5l-219.8 27.8v-16.1zm-219.8 96.8 32.7-2.7v16.3l-32.7 1.2zm2.2 192.3c-1.3-.3-2.2-1.5-2.2-2.8v-15.7l28.3 6.5c3.8.9 7.6-1.5 8.5-5.3s-1.5-7.6-5.3-8.5l-31.5-7.3v-130.2l36.8-1.4c5.6-.2 10-4.8 10-10.4v-24c0-6.1-5.2-10.8-11.2-10.3l-35.6 2.9v-14.1l219.8-27.8v23.7l-37.3 3.1c-5.3.4-9.5 5-9.5 10.3v30.7c0 5.9 4.9 10.6 10.7 10.4l36-1.3v9.6c0 3.9 3.2 7.1 7.1 7.1s7.1-3.2 7.1-7.1v-86.5l219.8 27.8v14.1l-64.6-5.3c-6.1-.5-11.2 4.3-11.2 10.3v25.4c0 5.6 4.4 10.1 10 10.4l65.9 2.5v130.3l-219.8 50.7v-142c0-3.9-3.2-7.1-7.1-7.1s-7.1 3.2-7.1 7.1v142l-156.2-36c-3.8-.9-7.6 1.5-8.5 5.3s1.5 7.6 5.3 8.5l159.4 36.8v25.2c-7.3-2-206.2-54.6-217.6-57.6zm451.5-177.5-61.7-2.3v-17.6l61.7 5.1zm-219.7 235.1v-25.4l219.8-50.7v15.7c0 1.3-.9 2.5-2.2 2.8.1 0 3.6-1-217.6 57.6zm219.7-364.5v41.7l-31.7-5.5c-3.8-.7-7.5 1.9-8.2 5.7s1.9 7.5 5.7 8.2l34.1 5.9v16.1l-219.8-27.8v-26.5c164.6 28.6 153.7 26.7 154.6 26.7 3.4 0 6.4-2.4 6.9-5.9.7-3.8-1.9-7.5-5.7-8.2l-155.7-27v-63.8l217.6 57.6c1.4.3 2.2 1.5 2.2 2.8zm-451.5-2.8 217.6-57.6v63.9l-219.8 38.1v-41.7c0-1.2.9-2.4 2.2-2.7z"/><path d="m298.8 403.3 67.8-12.9c5.1-1 8.7-5.4 8.7-10.5v-174c0-5.5-4.3-10.2-9.8-10.7l-67.8-5.6c-6.3-.5-11.6 4.5-11.6 10.7v192.4c0 6.8 6.1 11.8 12.7 10.6zm1.4-199.3 60.9 5v168l-60.9 11.6zm-180.9 40.7 40.2-1.5c5.6-.2 10-4.8 10-10.4v-28.3c0-6-5.2-10.8-11.2-10.3l-40.2 3.3c-5.3.4-9.5 5-9.5 10.3v26.5c0 6 5 10.6 10.7 10.4zm3.4-33.3 32.7-2.7v20.6l-32.7 1.2zm-23.4 10.8c0 3.9-3.2 7.1-7.1 7.1s-7.1-3.2-7.1-7.1 3.2-7.1 7.1-7.1c4 0 7.1 3.2 7.1 7.1zm93.6-5.6c0 3.9-3.2 7.1-7.1 7.1s-7.1-3.2-7.1-7.1 3.2-7.1 7.1-7.1 7.1 3.2 7.1 7.1zm205.3 5.6c0 3.9-3.2 7.1-7.1 7.1s-7.1-3.2-7.1-7.1 3.2-7.1 7.1-7.1 7.1 3.2 7.1 7.1z"/></g></svg>