<svg enable-background="new 0 0 581 581" viewBox="0 0 581 581" xmlns="http://www.w3.org/2000/svg"><g stroke="#000" stroke-miterlimit="10" stroke-width="5"><path d="m327.5 363.9c0 50.8 41.2 92 92 92s92-41.2 92-92-41.2-92-92-92c-50.9.1-92 41.2-92 92zm91.9-73.6c40.6 0 73.6 32.9 73.6 73.6s-32.9 73.6-73.6 73.6-73.6-32.9-73.6-73.6c.1-40.6 33-73.5 73.6-73.6zm-52.5 257.5h105.1v18.4h-105.1zm-39.4-36.8h183.9v18.4h-183.9zm-202.4 0h18.4v18.4h-18.4zm-55.1 18.4h18.4v18.4h-18.4z"/><path d="m126.1 459.3c48-83.6 78.1-176.3 88.5-272.2l85.5 85c1.7 1.7 4 2.7 6.4 2.7.5 0 1 0 1.5-.1 2.9-.5 5.4-2.3 6.7-5 17.3-34.6 10.5-76.4-16.8-103.8l-7.5-7.5h64.6c5.1 0 9.2-4.1 9.2-9.2 0-1-.2-2-.5-2.9-12.2-36.7-46.6-61.5-85.3-61.5h-12l45.9-46.2c3.6-3.6 3.6-9.4 0-13-.7-.7-1.5-1.3-2.4-1.7-34.6-17.4-76.5-10.6-103.8 16.8l-8.8 8.8c-2.9 2.9-5.5 6-8 9.2-2.4-3.2-5.1-6.3-7.9-9.2l-8.8-8.8c-27.1-27.3-69-34.1-103.6-16.7-4.5 2.3-6.4 7.8-4.1 12.3.4.9 1 1.7 1.7 2.4l46 46.2h-12.1c-38.7 0-73.1 24.7-85.3 61.5-1.6 4.8 1 10 5.8 11.6.9.3 1.9.5 2.9.5h64.6l-7.5 7.5c-27.4 27.3-34.2 69.2-16.9 103.8 1.3 2.6 3.8 4.5 6.7 5 .5.1 1 .1 1.5.1 2.4 0 4.8-1 6.5-2.7l79.6-79.2c-9.9 88.1-43 172-96.1 243-12.4-3.2-24.9-5.8-37.5-7.6l-5.7-.6-1.8 18.3 5.4.5c9.2 1.3 18.3 3.2 27.4 5.3-1.8 2.3-3.7 4.7-5.6 6.9l14.1 11.8c70.7-84 112.8-188.3 120.3-297.9l10.6-10.5 7.9 7.9c-9.7 117.1-49.9 229.7-116.6 326.5l15.1 10.5c7.2-10.3 14.1-21 20.8-31.9 43 20.6 81 50.3 111.3 87.2l14.2-11.7c-17.9-21.8-38.4-41.2-61.1-58h385.4v-18.4h-412.6c-9-5.5-18.3-10.4-27.8-15zm177-210.1-97.1-96.6c24.9-7.4 51.8-.7 70.2 17.6l8.8 8.8c18.3 18.3 25.3 45.2 18.1 70.2zm37.9-109.2h-76.1c-17.7-8.4-37.7-10.8-57-6.8 13.4-18.8 35-30 58.1-30h12.4c26 0 50 14.1 62.6 36.8zm-130.6-77.4 8.8-8.8c18.4-18.4 45.3-25.4 70.3-18.2l-54.5 54.8c-17.7 6.5-32.9 18.4-43.4 34.1-4.3-22.5 2.8-45.6 18.8-61.9zm-50.6-8.8 8.8 8.8c4.1 4.2 7.6 8.9 10.6 13.9-4.2 9.7-6.5 20-7 30.6a91.44 91.44 0 0 0 -28-16.6l-54.7-54.9c25-7.2 51.9-.2 70.3 18.2zm-59.3 49.4h12.4c23.1 0 44.8 11.1 58.2 30-19.2-4-39.2-1.6-56.9 6.8h-76.2c12.6-22.7 36.6-36.8 62.5-36.8zm-24.6 146c-7.2-25-.2-51.9 18.2-70.3l8.8-8.8c13.2-13.2 31.2-20.6 49.9-20.5 6.9 0 13.8 1 20.4 2.9z"/></g></svg>