<svg enable-background="new 0 0 512 512" viewBox="0 0 512 512" xmlns="http://www.w3.org/2000/svg"><path d="m506.555 208.064-242.696-177.697a13.3 13.3 0 0 0 -15.716 0l-242.698 177.697c-5.928 4.341-7.216 12.665-2.875 18.593s12.666 7.214 18.593 2.875l234.837-171.944 234.837 171.943a13.236 13.236 0 0 0 7.848 2.57c4.096 0 8.138-1.885 10.744-5.445 4.342-5.927 3.054-14.251-2.874-18.592z"/><path d="m442.246 232.543c-7.346 0-13.303 5.956-13.303 13.303v211.749h-106.422v-115.586c0-36.68-29.842-66.52-66.52-66.52s-66.52 29.842-66.52 66.52v115.587h-106.423v-211.749c0-7.347-5.957-13.303-13.303-13.303s-13.303 5.956-13.303 13.303v225.053c0 7.347 5.957 13.303 13.303 13.303h133.029c6.996 0 12.721-5.405 13.251-12.267.032-.311.052-.651.052-1.036v-128.89c0-22.009 17.905-39.914 39.914-39.914s39.914 17.906 39.914 39.914v128.89c0 .383.02.717.052 1.024.524 6.867 6.251 12.279 13.251 12.279h133.029c7.347 0 13.303-5.956 13.303-13.303v-225.053c-.001-7.348-5.957-13.304-13.304-13.304z"/></svg>