<svg enable-background="new 0 0 476 476" viewBox="0 0 476 476" xmlns="http://www.w3.org/2000/svg"><g stroke="#000" stroke-miterlimit="10" stroke-width="5"><path d="m35.3 280.9 124.9 17.2-60.9 88.7c-1.4 2-1.7 4.6-.8 6.9s2.8 4 5.2 4.6l29.8 7.5c2.4.6 4.9 0 6.8-1.7l106.2-94.4 59.4 5.4c7.6.7 17.2 1 27 1 14.1.1 28.2-.7 42.2-2.2l19.7-2.5c13.8-1.7 27.3-5.4 40.1-10.9l14.2-6.1c6.3-2.7 10.6-8.8 11-15.6.4-6.9-3.1-13.4-9-16.9l-43.1-25.1c-19.4-11.3-41.4-17.3-63.9-17.3h-56.3l-86.3-98c-1.5-1.6-3.6-2.5-5.7-2.5l-30.7.6c-2.5 0-4.8 1.3-6.2 3.5-1.3 2.1-1.5 4.8-.5 7.1l40 89.5h-103.3l-35.1-70.6c-1.3-2.5-3.9-4.1-6.7-4.1h-29.9c-2.2 0-4.3 1-5.7 2.6-1.4 1.7-2 3.9-1.7 6l14 84-1.7.8c-8.8 4.4-13.7 14-12.1 23.7 1.7 9.9 9.4 17.5 19.1 18.8zm97.9 109.4-15.6-3.9 73.5-106.8 60.5 5.5-10.3 9.2-1-.1-.1 1.1zm43.3-256 16-.3 75.4 85.6h-53.2zm-130.8 106.4-13.5-80.8h16.4l35.2 70.4c1.3 2.5 3.9 4.1 6.7 4.1h253.5c19.2 0 38.1 5 54.8 14.4l2.3 4.6-6.7 3.3h-28.1v14.9h29.8c1.2 0 2.3-.2 3.3-.7l14.9-7.5c1.5-.8 2.7-2.1 3.4-3.6l25.7 15c1.1.6 1.7 1.8 1.7 3.1-.1 1.3-.9 2.4-2 2.9l-14.2 6.1a137 137 0 0 1 -36.1 9.8l-19.7 2.5c-21.9 2.3-44 2.7-66 1.1l-45.5-4.1 12.7-11.3c2.3-2 3.2-5.1 2.2-8-.9-2.9-3.5-4.9-6.5-5.1l-82-7.5c-2.7-.2-5.3 1-6.8 3.2l-11.6 16.9-132.2-18.2c-3.3-.5-5.9-3-6.4-6.3s1.1-6.5 4.1-8l6.6-3.3c2.9-1.4 4.5-4.7 4-7.9z"/><path d="m112.9 242h14.9v14.9h-14.9zm29.8 0h14.9v14.9h-14.9zm29.8 0h14.9v14.9h-14.9zm29.9 0h14.9v14.9h-14.9zm29.8 0h14.9v14.9h-14.9zm29.8 0h14.9v14.9h-14.9zm29.8 0h14.9v14.9h-14.9zm133.4-156.2c-2.9-11.9-12.8-20.8-24.9-22.5s-24.1 4.3-30.1 14.9c-7.6-1.3-15.4 1.4-20.5 7.2-13.2-1-25.1 8.1-27.6 21.1s5.2 25.8 17.9 29.8c1.2.8 2.6 1.2 4 1.2h89.5c1.3 0 2.6-.4 3.7-1.1 12.4-3.7 20.3-16 18.4-28.8s-12.9-22.3-25.8-22.3c-1.6.1-3.1.2-4.6.5zm15.7 25.7c0 5.3-3.7 9.9-8.9 11-.3.1-.6.1-.8.2h-84.8c-.3-.1-.6-.2-.8-.2-5.6-1.1-9.5-6.4-8.9-12.1s5.4-10.1 11.1-10.1c1.1 0 2.2.2 3.2.5 3.5 1 7.2-.6 8.8-3.8 1-1.9 2.7-3.3 4.7-3.8 2-.6 4.2-.3 6 .8 2 1.3 4.6 1.6 6.9.7s3.9-2.9 4.5-5.2c2-7.7 9.7-12.5 17.5-10.8 7.8 1.6 12.9 9.1 11.6 17-.6 3.1.8 6.2 3.5 7.8s6.1 1.4 8.5-.6c3.3-2.7 7.9-3.3 11.8-1.4 3.7 1.7 6.2 5.7 6.1 10zm-160.3 294.5c-1.5 0-3.1.1-4.6.4-2.9-11.9-12.8-20.8-24.9-22.5s-24.1 4.3-30.1 14.9c-7.6-1.3-15.4 1.4-20.5 7.2-13.2-1-25.1 8.1-27.6 21.1s5.2 25.8 17.9 29.8c1.2.8 2.6 1.2 4 1.2h89.5c1.3 0 2.6-.4 3.7-1.1 12.4-3.7 20.3-16 18.4-28.8-1.8-12.7-12.8-22.2-25.8-22.2zm2.3 37c-.3.1-.6.1-.8.2h-84.8c-.3-.1-.6-.2-.8-.2-5.6-1.1-9.5-6.4-8.9-12.1s5.4-10.1 11.1-10.1c1.1 0 2.2.2 3.2.5 3.5 1 7.2-.6 8.8-3.8 1-1.9 2.7-3.3 4.7-3.8 2-.6 4.2-.3 6 .8 2 1.3 4.6 1.6 6.9.7s3.9-2.9 4.5-5.2c2-7.7 9.7-12.5 17.5-10.8 7.8 1.6 12.9 9.1 11.6 17-.6 3.1.8 6.2 3.5 7.8s6.1 1.4 8.5-.6c3.6-3 8.7-3.4 12.7-1 4 2.3 6.2 6.9 5.4 11.5-1 4.6-4.5 8.3-9.1 9.1zm-155.9-402c-2.9-11.9-12.8-20.8-24.9-22.5-12.2-1.6-24.1 4.3-30.1 15-7.6-1.3-15.4 1.4-20.5 7.2-13.2-1-25.1 8.1-27.6 21.1s5.2 25.8 17.9 29.8c1.2.8 2.6 1.2 4 1.2h89.5c1.3 0 2.6-.4 3.7-1.1 12.4-3.7 20.3-16 18.4-28.8s-12.9-22.3-25.8-22.3c-1.6 0-3.1.2-4.6.4zm15.7 25.7c0 5.3-3.7 9.9-8.9 11-.3.1-.6.1-.8.2h-84.9c-.3-.1-.6-.2-.8-.2-5.6-1.1-9.5-6.4-8.9-12.1s5.4-10.1 11.1-10.1c1.1 0 2.2.2 3.2.5 3.5 1 7.2-.6 8.8-3.8 1-1.9 2.7-3.3 4.7-3.8 2-.6 4.2-.3 6 .8 2 1.3 4.6 1.6 6.9.7s3.9-2.9 4.5-5.2c2-7.7 9.7-12.5 17.5-10.8 7.8 1.6 12.9 9.1 11.6 17-.6 3.1.8 6.2 3.5 7.8s6.1 1.4 8.5-.6c3.3-2.7 7.9-3.3 11.8-1.4 3.8 1.8 6.3 5.7 6.2 10z"/></g></svg>