<?xml version="1.0" encoding="utf-8"?>
<!-- Generator: Adobe Illustrator 23.0.6, SVG Export Plug-In . SVG Version: 6.00 Build 0)  -->
<svg version="1.1" id="Capa_1" xmlns="http://www.w3.org/2000/svg" xmlns:xlink="http://www.w3.org/1999/xlink" x="0px" y="0px"
	 viewBox="0 0 508 508" style="enable-background:new 0 0 508 508;" xml:space="preserve">
<style type="text/css">
	.st0{stroke:#000000;stroke-width:7;stroke-miterlimit:10;}
</style>
<g>
	<g>
		<path class="st0" d="M451.9,332.7c-0.6-33-15.6-62.4-39-82.5c5.5-12,8.5-25,8.5-38.2c0-50.4-41-91.3-91.3-91.3
			c-36.4,0-69,21.6-83.5,54.5c-15.6-5.9-32.4-9-49.7-9c-77.6,0-140.8,62.8-140.8,140c0,8.4,0.8,16.9,2.4,25.5
			C34.4,341.4,18,365,18,391.4c0,35.5,29,64.4,64.7,64.4h342.6c35.7,0,64.7-28.9,64.7-64.4C490,366,474.9,343.1,451.9,332.7z
			 M330.1,136c42,0,76.1,34.2,76.1,76.1c0,9.9-2,19.7-5.8,28.8c-17.6-11.3-38.5-17.9-60.9-17.9c-9.2,0-18.3,1.1-27.2,3.3
			c-13.5-19.3-31.4-34.6-51.8-44.9C272.6,154,299.8,136,330.1,136z M425.3,440.4H82.7c-27.3,0-49.5-22-49.5-49.2
			c0-41.1,43.3-49.2,43.3-49.2s-5.2-14.5-5.2-35.9c0-68.8,56.4-124.8,125.6-124.8c76.4,0,108.9,62.6,108.9,62.6s14.3-5.9,33.8-5.9
			c53.5,0,97.1,43.2,97.1,96.4c0,0.5-0.3,8.5-0.3,8.5s38.4,8,38.4,48.1C474.8,418.4,452.6,440.4,425.3,440.4z"/>
	</g>
</g>
<g>
	<g>
		<rect x="322.5" y="52.2" class="st0" width="15.2" height="45.7"/>
	</g>
</g>
<g>
	<g>
		
			<rect x="225.6" y="92.4" transform="matrix(0.7071 -0.7072 0.7072 0.7071 -13.1796 198.7116)" class="st0" width="15.2" height="45.7"/>
	</g>
</g>
<g>
	<g>
		<rect x="444.3" y="204.4" class="st0" width="45.7" height="15.2"/>
	</g>
</g>
<g>
	<g>
		<polygon class="st0" points="281.8,75.6 267.8,81.3 279.4,109.5 293.5,103.7 		"/>
	</g>
</g>
<g>
	<g>
		
			<rect x="364.3" y="84.9" transform="matrix(0.3828 -0.9238 0.9238 0.3828 148.7706 407.7899)" class="st0" width="30.5" height="15.2"/>
	</g>
</g>
<g>
	<g>
		
			<rect x="442" y="246.3" transform="matrix(0.3828 -0.9238 0.9238 0.3828 35.8793 576.8338)" class="st0" width="15.2" height="30.5"/>
	</g>
</g>
<g>
	<g>
		
			<rect x="434.5" y="154.9" transform="matrix(0.9239 -0.3827 0.3827 0.9239 -27.9769 184.4816)" class="st0" width="30.5" height="15.2"/>
	</g>
</g>
<g>
	<g>
		
			<rect x="404.1" y="107.6" transform="matrix(0.7071 -0.7071 0.7071 0.7071 43.5835 335.6497)" class="st0" width="45.7" height="15.2"/>
	</g>
</g>
<g>
	<g>
		<path class="st0" d="M94.1,303.5h15.2c0-46.2,37.5-83.7,83.7-83.7v-15.2C138.5,204.4,94.1,248.8,94.1,303.5z"/>
	</g>
</g>
</svg>
