<svg enable-background="new 0 0 508 508" viewBox="0 0 508 508" xmlns="http://www.w3.org/2000/svg"><g stroke="#000" stroke-miterlimit="10" stroke-width="7"><path d="m451.9 332.7c-.6-33-15.6-62.4-39-82.5 5.5-12 8.5-25 8.5-38.2 0-50.4-41-91.3-91.3-91.3-36.4 0-69 21.6-83.5 54.5-15.6-5.9-32.4-9-49.7-9-77.6 0-140.8 62.8-140.8 140 0 8.4.8 16.9 2.4 25.5-24.1 9.7-40.5 33.3-40.5 59.7 0 35.5 29 64.4 64.7 64.4h342.6c35.7 0 64.7-28.9 64.7-64.4 0-25.4-15.1-48.3-38.1-58.7zm-121.8-196.7c42 0 76.1 34.2 76.1 76.1 0 9.9-2 19.7-5.8 28.8-17.6-11.3-38.5-17.9-60.9-17.9-9.2 0-18.3 1.1-27.2 3.3-13.5-19.3-31.4-34.6-51.8-44.9 12.1-27.4 39.3-45.4 69.6-45.4zm95.2 304.4h-342.6c-27.3 0-49.5-22-49.5-49.2 0-41.1 43.3-49.2 43.3-49.2s-5.2-14.5-5.2-35.9c0-68.8 56.4-124.8 125.6-124.8 76.4 0 108.9 62.6 108.9 62.6s14.3-5.9 33.8-5.9c53.5 0 97.1 43.2 97.1 96.4 0 .5-.3 8.5-.3 8.5s38.4 8 38.4 48.1c0 27.4-22.2 49.4-49.5 49.4z"/><path d="m322.5 52.2h15.2v45.7h-15.2z"/><path d="m225.6 92.4h15.2v45.7h-15.2z" transform="matrix(.7071 -.7072 .7072 .7071 -13.1796 198.7116)"/><path d="m444.3 204.4h45.7v15.2h-45.7z"/><path d="m281.8 75.6-14 5.7 11.6 28.2 14.1-5.8z"/><path d="m364.3 84.9h30.5v15.2h-30.5z" transform="matrix(.3828 -.9238 .9238 .3828 148.7706 407.7899)"/><path d="m442 246.3h15.2v30.5h-15.2z" transform="matrix(.3828 -.9238 .9238 .3828 35.8793 576.8338)"/><path d="m434.5 154.9h30.5v15.2h-30.5z" transform="matrix(.9239 -.3827 .3827 .9239 -27.9769 184.4816)"/><path d="m404.1 107.6h45.7v15.2h-45.7z" transform="matrix(.7071 -.7071 .7071 .7071 43.5835 335.6497)"/><path d="m94.1 303.5h15.2c0-46.2 37.5-83.7 83.7-83.7v-15.2c-54.5-.2-98.9 44.2-98.9 98.9z"/></g></svg>