<svg enable-background="new 0 0 512 512" viewBox="0 0 512 512" xmlns="http://www.w3.org/2000/svg"><path d="m485.4 335.5h-13v-162.3l15.4-5.2c4-1.3 6.1-5.6 4.8-9.6-.8-2.2-2.5-4-4.8-4.8l-229.4-77c-1.6-.5-3.3-.5-4.8 0l-229.4 77c-4 1.3-6.1 5.6-4.8 9.6.8 2.2 2.5 4 4.8 4.8l75.6 25.4v137.9c0 4.9 0 13.2 49.8 22 35.2 5.9 70.8 8.8 106.4 8.7 35.7.2 71.3-2.7 106.4-8.7 49.8-8.8 49.8-17.1 49.8-22v-137.9l45.1-15.2v157.1h-13c-4.2 0-7.6 3.4-7.6 7.6v85.1c0 4.2 3.4 7.6 7.6 7.6 1.8 0 3.6-.7 5-1.9l15.6-13.7 15.6 13.7c3.2 2.7 7.9 2.4 10.7-.7 1.2-1.4 1.9-3.1 1.9-5v-85c-.1-4.2-3.5-7.5-7.7-7.5zm-229.4-243.7 205.6 69-205.6 69-205.6-69zm141 236.7c-10.9 6-66.8 18.3-141 18.3s-130.1-12.3-141-18.3v-130l138.6 46.5c1.6.5 3.3.5 4.8 0l138.6-46.5zm80.8 82.9-8-7c-2.9-2.5-7.1-2.5-10 0l-8 7v-60.8h26z" stroke="#000" stroke-miterlimit="10" stroke-width="5"/></svg>