<svg enable-background="new 0 0 480 480" viewBox="0 0 480 480" xmlns="http://www.w3.org/2000/svg"><g stroke="#000" stroke-miterlimit="10" stroke-width="3"><path d="m329.1 170.3-4.6-15.1c-5.8-17.1-24.4-26.3-41.5-20.5-9.6 3.3-17.2 10.8-20.5 20.5l-4.6 15.1c-3.9 12.7-4.7 26.2-2.4 39.2 2.1 11 9.1 20.5 19 25.7l-5.1 114.7c-.7 6.4 1.4 12.8 5.7 17.6 9.3 10.2 25 10.9 35.2 1.6.5-.5 1.1-1 1.6-1.6 4.2-4.6 6.3-10.8 5.7-17.1l-5.2-115.1c9.9-5.2 16.9-14.7 19-25.7 2.3-13.2 1.5-26.6-2.3-39.3zm-11.7 36.7c-1.5 7.9-7.2 14.4-14.8 17-2.9 1.1-4.8 3.9-4.6 7l5.4 120.4c.2 2.4-.5 4.7-2.1 6.5-4.3 4.3-11.2 4.3-15.5 0-1.7-1.9-2.5-4.4-2.1-6.9l5.3-120c.1-3.1-1.7-5.9-4.6-7-7.6-2.6-13.3-9.1-14.8-17-1.9-10.9-1.2-22 2-32.6l4.6-15.1c3.5-9.6 14.2-14.5 23.8-10.9 5.1 1.9 9.1 5.9 10.9 10.9l4.6 15.1c3.1 10.6 3.8 21.7 1.9 32.6zm-98.8-74c-3.9 0-7.1 3.2-7.1 7.1v61.2l-19.3 19.3c-1.4 1.4-2.2 3.4-2.1 5.4l6.2 124.8c.1 2.7-.8 5.3-2.7 7.3-3.9 3.9-10.3 4-14.2.1l-.1-.1c-1.9-1.9-2.8-4.6-2.7-7.3l6.3-124.8c.1-2-.7-4-2.1-5.4l-19.3-19.3v-61.2c0-3.9-3.2-7.1-7.1-7.1s-7.1 3.2-7.1 7.1v64.2c0 1.9.8 3.7 2.1 5l19.2 19.2-6.1 121.7c-.6 13.3 9.6 24.6 22.9 25.2s24.6-9.6 25.2-22.9v-2.3l-6.1-121.7 19.2-19.2c1.3-1.3 2.1-3.2 2.1-5v-64.2c-.1-3.9-3.3-7.1-7.2-7.1z"/><path d="m175.8 133c-3.9 0-7.1 3.2-7.1 7.1v57.1c0 3.9 3.2 7.1 7.1 7.1s7.1-3.2 7.1-7.1v-57.1c0-3.9-3.2-7.1-7.1-7.1zm21.4 0c-3.9 0-7.1 3.2-7.1 7.1v57.1c0 3.9 3.2 7.1 7.1 7.1s7.1-3.2 7.1-7.1v-57.1c0-3.9-3.2-7.1-7.1-7.1z"/><path d="m240 26c-118.2 0-214 95.8-214 214s95.8 214 214 214 214-95.8 214-214c-.1-118.1-95.9-213.9-214-214zm0 413.7c-110.3 0-199.7-89.4-199.7-199.7s89.4-199.7 199.7-199.7 199.7 89.4 199.7 199.7c-.1 110.3-89.4 199.6-199.7 199.7z"/><path d="m263.2 373.9c-.4-3.9-3.9-6.8-7.8-6.4h-.3c-10 1.2-20.2 1.2-30.2 0-3.9-.5-7.5 2.3-7.9 6.3-.5 3.9 2.3 7.5 6.3 7.9 11.1 1.3 22.4 1.3 33.5 0 3.9-.4 6.7-3.9 6.4-7.8zm85.9-225.8c-2.5-3-7-3.4-10-.9s-3.4 7-.9 10.1c43 51.1 39.7 126.6-7.6 173.7-2.8 2.8-2.8 7.3 0 10.1s7.3 2.8 10.1 0c52.6-52.4 56.2-136.3 8.4-193zm-75.5-46.8c-27.9-6.7-57.1-4.9-84 5.2-3.7 1.4-5.6 5.5-4.2 9.2 1 2.8 3.7 4.6 6.7 4.6.9 0 1.7-.2 2.5-.5 24.2-9 50.5-10.7 75.6-4.6 3.8.9 7.7-1.4 8.6-5.3 1-3.8-1.3-7.7-5.2-8.6z"/><path d="m149 330.6c-24-24-37.5-56.6-37.4-90.6-.1-27.1 8.5-53.6 24.5-75.5 2.4-3.1 1.7-7.6-1.4-10s-7.6-1.7-10 1.4c0 .1-.1.1-.1.2-41.2 56.7-35.2 135 14.3 184.6 2.8 2.8 7.3 2.8 10.1 0s2.8-7.3 0-10.1z"/></g></svg>