<svg enable-background="new 0 0 511.999 511.999" viewBox="0 0 511.999 511.999" xmlns="http://www.w3.org/2000/svg"><path d="m214.685 402.828c-24.829 0-45.029 20.2-45.029 45.029s20.2 45.029 45.029 45.029 45.029-20.2 45.029-45.029c-.001-24.829-20.201-45.029-45.029-45.029zm0 64.914c-10.966 0-19.887-8.922-19.887-19.887 0-10.966 8.922-19.887 19.887-19.887s19.887 8.922 19.887 19.887c0 10.967-8.922 19.887-19.887 19.887zm157.945-64.914c-24.829 0-45.029 20.2-45.029 45.029s20.2 45.029 45.029 45.029 45.029-20.2 45.029-45.029c-.001-24.829-20.201-45.029-45.029-45.029zm0 64.914c-10.966 0-19.887-8.922-19.887-19.887 0-10.966 8.922-19.887 19.887-19.887 10.966 0 19.887 8.922 19.887 19.887 0 10.967-8.922 19.887-19.887 19.887zm11.086-301.987h-180.149c-6.943 0-12.571 5.628-12.571 12.571s5.629 12.571 12.571 12.571h180.149c6.943 0 12.571-5.628 12.571-12.571 0-6.944-5.628-12.571-12.571-12.571zm-9.805 65.28h-160.538c-6.943 0-12.571 5.628-12.571 12.571s5.628 12.571 12.571 12.571h160.537c6.943 0 12.571-5.628 12.571-12.571 0-6.942-5.628-12.571-12.57-12.571z"/><path d="m506.341 109.744a25.04 25.04 0 0 0 -19.489-9.258h-391.574l-7.908-38.389a25.173 25.173 0 0 0 -14.614-17.989l-55.177-23.95c-6.37-2.767-13.773.156-16.536 6.524-2.766 6.37.157 13.774 6.524 16.537l55.178 23.951 60.826 295.261c2.396 11.628 12.752 20.068 24.625 20.068h301.166c6.943 0 12.571-5.628 12.571-12.571s-5.628-12.571-12.571-12.571h-301.165l-7.399-35.916h310.892c11.872 0 22.229-8.44 24.624-20.068l35.163-170.675a25.043 25.043 0 0 0 -5.136-20.954zm-54.651 186.557h-316.071l-35.161-170.674 386.393.001z"/></svg>