<?xml version="1.0" encoding="utf-8"?>
<!-- Generator: Adobe Illustrator 23.0.6, SVG Export Plug-In . SVG Version: 6.00 Build 0)  -->
<svg version="1.1" id="Слой_1" xmlns="http://www.w3.org/2000/svg" xmlns:xlink="http://www.w3.org/1999/xlink" x="0px" y="0px"
	 viewBox="0 0 480 480" style="enable-background:new 0 0 480 480;" xml:space="preserve">
<style type="text/css">
	.st0{stroke:#000000;stroke-width:5;stroke-miterlimit:10;}
</style>
<path class="st0" d="M447.9,101.4H347.8V70.6c0-21.3-17.2-38.5-38.5-38.5H170.7c-21.3,0-38.5,17.2-38.5,38.5v30.8H32.1
	C19.3,101.4,9,111.7,9,124.5v171.4c0,9.8,6.2,18.5,15.4,21.7v107.2c0,12.8,10.3,23.1,23.1,23.1h385c12.8,0,23.1-10.3,23.1-23.1
	V317.6c9.2-3.3,15.4-12,15.4-21.7V124.5C471,111.7,460.7,101.4,447.9,101.4z M147.6,70.6c0-12.8,10.3-23.1,23.1-23.1h138.6
	c12.8,0,23.1,10.3,23.1,23.1v30.8H317V70.6c0-4.3-3.4-7.7-7.7-7.7H170.7c-4.3,0-7.7,3.4-7.7,7.7v30.8h-15.4V70.6z M301.6,101.4
	H178.4V78.3h123.2V101.4z M440.2,424.8c0,4.3-3.4,7.7-7.7,7.7h-385c-4.3,0-7.7-3.4-7.7-7.7V320.3l169.4,23.4v19.6
	c0,12.8,10.3,23.1,23.1,23.1h15.4c12.8,0,23.1-10.3,23.1-23.1v-19.6l169.4-23.4V424.8z M255.4,363.2c0,4.3-3.4,7.7-7.7,7.7h-15.4
	c-4.3,0-7.7-3.4-7.7-7.7V317c0-4.3,3.4-7.7,7.7-7.7h15.4c4.3,0,7.7,3.4,7.7,7.7V363.2z M455.6,295.9c0,3.8-2.8,7.1-6.6,7.6l-2.1,0.3
	l-176,24.3V317c0-12.8-10.3-23.1-23.1-23.1h-15.4c-12.8,0-23.1,10.3-23.1,23.1v11.1L31,303.5c-3.8-0.5-6.6-3.8-6.6-7.6V124.5
	c0-4.3,3.4-7.7,7.7-7.7h415.8c4.3,0,7.7,3.4,7.7,7.7V295.9z"/>
</svg>
