<?xml version="1.0" encoding="utf-8"?><!-- Generator: Adobe Illustrator 23.0.6, SVG Export Plug-In . SVG Version: 6.00 Build 0)  -->
<svg version="1.1" id="Capa_1" xmlns="http://www.w3.org/2000/svg" x="0px" y="0px"
    viewBox="0 0 512 512" style="enable-background:new 0 0 512 512;" xml:space="preserve">
<style type="text/css">
	.st0{stroke:#000000;stroke-width:5;stroke-miterlimit:10;}
</style>
    <g>
	<g>
		<path d="M455.4,281.9c-3.4-4.4-9.7-5.2-14.1-1.8c-4.4,3.4-5.2,9.7-1.8,14.1c10.3,13.4,15.8,29.4,15.8,46.4c0,5.5,4.5,10,10,10
			s10-4.5,10-10C475.4,319.1,468.5,298.9,455.4,281.9z" />
	</g>
</g>
    <g>
	<g>
		<path class="st0" d="M412,217c19.2-13,31.8-34.9,31.8-59.7c0-39.7-32.3-72-72-72s-72,32.3-72,72c0,24.8,12.6,46.8,31.8,59.7
			c-14,4.7-27,11.9-38.7,21.4c-9.8-9.4-23-14.9-36.9-14.9c-13.9,0-27.1,5.4-36.9,14.9c-11.6-9.4-24.7-16.6-38.7-21.4
			c19.2-13,31.8-34.9,31.8-59.7c0-39.7-32.3-72-72-72c-39.7,0-72,32.3-72,72c0,24.8,12.6,46.8,31.8,59.7
			c-49.3,16.8-84.9,63.5-85,118.4c0,0.1,0,0.2,0,0.2c0,14.5,8.2,35.9,47.5,55.5c28,14,66.5,24.5,111.2,30.4
			c26.3,3.5,53.9,5.2,82.2,5.2c28.3,0,56-1.8,82.2-5.2c44.8-5.9,83.2-16.4,111.2-30.4c39.3-19.6,47.5-41,47.5-55.5
			C497,280.6,461.4,233.8,412,217z M318.7,157.3c0-29.3,23.8-53.1,53.1-53.1c29.3,0,53.1,23.8,53.1,53.1c0,29.3-23.8,53.1-53.1,53.1
			C342.5,210.4,318.7,186.6,318.7,157.3z M227.8,257.1c6.4-9.2,17-14.8,28.2-14.8c11.2,0,21.8,5.5,28.2,14.8c0,0,0,0,0,0
			c4,5.8,6.1,12.5,6.1,19.6c0,18.9-15.4,34.3-34.3,34.3c-18.9,0-34.3-15.4-34.3-34.3C221.7,269.6,223.8,262.9,227.8,257.1z
			 M87.1,157.3c0-29.3,23.8-53.1,53.1-53.1c29.3,0,53.1,23.8,53.1,53.1c0,29.3-23.8,53.1-53.1,53.1
			C110.9,210.4,87.1,186.6,87.1,157.3z M165.5,401.3c-38.1-5.8-70.6-15.1-94.6-27c-23.8-11.9-37-25.6-37.1-38.5c0,0,0-0.1,0-0.1
			c0-58.6,47.7-106.3,106.3-106.3c24.9,0,48.7,8.6,67.8,24.4c-3.4,7.1-5.2,15-5.2,23c0,16.5,7.5,31.2,19.3,41
			C189,331.1,165.6,363.5,165.5,401.3z M327.6,403.8c-23,2.7-47,4-71.6,4c-24.5,0-48.6-1.4-71.6-4v-2.3c0-39.5,32.1-71.6,71.6-71.6
			c39.5,0,71.6,32.1,71.6,71.6V403.8z M441,374.2c-23.9,12-56.5,21.2-94.6,27c-0.1-37.8-23.5-70.2-56.5-83.6
			c11.8-9.8,19.3-24.5,19.3-41c0-8.1-1.8-15.9-5.2-23c19-15.8,42.8-24.4,67.8-24.4c58.6,0,106.3,47.7,106.3,106.3
			C478.1,348.6,464.9,362.3,441,374.2z" />
	</g>
</g>
    <g>
	<g>
		<path d="M425.3,258.3c-12.9,0-12.9,20.1,0,20.1C438.2,278.4,438.3,258.3,425.3,258.3z" />
	</g>
</g>
</svg>
