<?xml version="1.0" encoding="utf-8"?>
<!-- Generator: Adobe Illustrator 23.0.6, SVG Export Plug-In . SVG Version: 6.00 Build 0)  -->
<svg version="1.1" id="Layer_1" xmlns="http://www.w3.org/2000/svg" xmlns:xlink="http://www.w3.org/1999/xlink" x="0px" y="0px"
	 viewBox="0 0 512 512" style="enable-background:new 0 0 512 512;" xml:space="preserve">
<style type="text/css">
	.st0{stroke:#000000;stroke-width:5;stroke-miterlimit:10;}
</style>
<path class="st0" d="M430.9,467.4V281h-61.5v-19.2h5.8c9.5,0,17.3-7.8,17.3-17.3s-7.8-17.3-17.3-17.3h-6
	c-2.1-31.1-21.3-61.7-55.8-88.9c-21.8-17.2-43.4-28.1-51.6-32V82.6c17.4-2.8,30.8-17.9,30.8-36.1v-7.7H281c0,9.5-7.8,17.3-17.3,17.3
	s-17.3-7.8-17.3-17.3s7.8-17.3,17.3-17.3V10H256c-20.1,0-36.5,16.4-36.5,36.5c0,18.2,13.3,33.3,30.8,36.1v23.7
	c-8.2,3.9-29.8,14.9-51.6,32.2c-34.5,27.3-53.7,57.8-55.8,88.7h-6c-9.5,0-17.3,7.8-17.3,17.3s7.8,17.3,17.3,17.3h5.8V281H81.1v186.4
	H50.4V502h411.3v-34.6H430.9z M231,46.5c0-5.4,1.7-10.4,4.7-14.5c-0.5,2.2-0.8,4.5-0.8,6.8c0,15.9,12.9,28.8,28.8,28.8
	c2.4,0,4.6-0.3,6.8-0.8c-4.1,2.9-9.1,4.7-14.5,4.7C242.2,71.5,231,60.3,231,46.5z M256,116.3c14.9,7,96.8,48.4,101.6,110.9H154.4
	C159.2,165.1,241.1,123.4,256,116.3z M136.8,250.2c-3.2,0-5.8-2.6-5.8-5.8s2.6-5.8,5.8-5.8h238.3c3.2,0,5.8,2.6,5.8,5.8
	s-2.6,5.8-5.8,5.8H136.8z M357.9,261.8V281H154.1v-19.2H357.9z M92.6,292.5h326.7v174.9h-19.2V357.9h-30.8v-30.8h-57.7v140.3h-19.2
	V327.1h-73v140.3h-19.2V327.1h-57.7v30.8h-30.8v109.5H92.6V292.5z M388.6,369.4v98h-65.3V338.6h34.6v30.8H388.6z M281,338.6v128.8
	h-50V338.6H281z M188.7,338.6v128.8h-65.3v-98h30.8v-30.8H188.7z M450.1,490.5H61.9v-11.5h388.2V490.5z"/>
</svg>
