<svg enable-background="new 0 0 512 512" viewBox="0 0 512 512" xmlns="http://www.w3.org/2000/svg"><path d="m455.4 281.9c-3.4-4.4-9.7-5.2-14.1-1.8s-5.2 9.7-1.8 14.1c10.3 13.4 15.8 29.4 15.8 46.4 0 5.5 4.5 10 10 10s10-4.5 10-10c.1-21.5-6.8-41.7-19.9-58.7z"/><path d="m412 217c19.2-13 31.8-34.9 31.8-59.7 0-39.7-32.3-72-72-72s-72 32.3-72 72c0 24.8 12.6 46.8 31.8 59.7-14 4.7-27 11.9-38.7 21.4-9.8-9.4-23-14.9-36.9-14.9s-27.1 5.4-36.9 14.9c-11.6-9.4-24.7-16.6-38.7-21.4 19.2-13 31.8-34.9 31.8-59.7 0-39.7-32.3-72-72-72s-72 32.3-72 72c0 24.8 12.6 46.8 31.8 59.7-49.3 16.8-84.9 63.5-85 118.4v.2c0 14.5 8.2 35.9 47.5 55.5 28 14 66.5 24.5 111.2 30.4 26.3 3.5 53.9 5.2 82.2 5.2s56-1.8 82.2-5.2c44.8-5.9 83.2-16.4 111.2-30.4 39.3-19.6 47.5-41 47.5-55.5.2-55-35.4-101.8-84.8-118.6zm-93.3-59.7c0-29.3 23.8-53.1 53.1-53.1s53.1 23.8 53.1 53.1-23.8 53.1-53.1 53.1-53.1-23.8-53.1-53.1zm-90.9 99.8c6.4-9.2 17-14.8 28.2-14.8s21.8 5.5 28.2 14.8c4 5.8 6.1 12.5 6.1 19.6 0 18.9-15.4 34.3-34.3 34.3s-34.3-15.4-34.3-34.3c0-7.1 2.1-13.8 6.1-19.6zm-140.7-99.8c0-29.3 23.8-53.1 53.1-53.1s53.1 23.8 53.1 53.1-23.8 53.1-53.1 53.1-53.1-23.8-53.1-53.1zm78.4 244c-38.1-5.8-70.6-15.1-94.6-27-23.8-11.9-37-25.6-37.1-38.5v-.1c0-58.6 47.7-106.3 106.3-106.3 24.9 0 48.7 8.6 67.8 24.4-3.4 7.1-5.2 15-5.2 23 0 16.5 7.5 31.2 19.3 41-33 13.3-56.4 45.7-56.5 83.5zm162.1 2.5c-23 2.7-47 4-71.6 4-24.5 0-48.6-1.4-71.6-4v-2.3c0-39.5 32.1-71.6 71.6-71.6s71.6 32.1 71.6 71.6zm113.4-29.6c-23.9 12-56.5 21.2-94.6 27-.1-37.8-23.5-70.2-56.5-83.6 11.8-9.8 19.3-24.5 19.3-41 0-8.1-1.8-15.9-5.2-23 19-15.8 42.8-24.4 67.8-24.4 58.6 0 106.3 47.7 106.3 106.3 0 13.1-13.2 26.8-37.1 38.7z" stroke="#000" stroke-miterlimit="10" stroke-width="5"/><path d="m425.3 258.3c-12.9 0-12.9 20.1 0 20.1s13-20.1 0-20.1z"/></svg>