<svg enable-background="new 0 0 512 512" viewBox="0 0 512 512" xmlns="http://www.w3.org/2000/svg"><g stroke="#000" stroke-miterlimit="10" stroke-width="5"><path d="m387.1 278.4c-.1 0-29.4-11.6-29.5-11.6-3.7-1.4-7.9.4-9.3 4.1s.4 7.9 4.1 9.3l29.3 11.5c1.8.8 30 13.4 30 46.8v57.6h-44.3v-31c0-4-3.2-7.2-7.2-7.2s-7.2 3.2-7.2 7.2v121.5h-148.5c-4 0-7.2 3.2-7.2 7.2s3.2 7.2 7.2 7.2h214.3c4 0 7.2-3.2 7.2-7.2 0-4.9 0-151.9 0-155.3 0-43.6-37.3-59.4-38.9-60.1zm-19.8 132.1h44.3v18.7h-44.3zm44.4 76.1h-44.3v-43h44.3z"/><path d="m325.4 181.6c27.9.3 42.5-33.7 22.1-53.6v-24.5c0-49.6-38.9-90.8-88.3-92.4-51.9-1.8-94.6 39.6-94.6 91.4v25.4c-5.2 5-8.6 11.7-9.4 19.3-1.9 18.7 12.8 34.7 31.4 34.4 2.4 18.9 12.5 35.4 27 46.4v15.6c-.1 0-88.6 34.8-88.7 34.8-1.6.7-38.9 16.5-38.9 60.1v155.3c0 4 3.2 7.2 7.2 7.2h84.6c4 0 7.2-3.2 7.2-7.2s-3.2-7.2-7.2-7.2h-18.8v-121.4c0-4-3.2-7.2-7.2-7.2s-7.2 3.2-7.2 7.2v31h-44.3v-57.6c0-33.6 28.4-46.1 30-46.8l83.3-32.7c0 5.6-.7 9.2 3.1 11.8 23.6 16.5 55 16.6 78.7 0 3.8-2.6 3.1-6.3 3.1-11.8l28.6 11.2c3.7 1.4 7.9-.4 9.3-4.1s-.4-7.9-4.1-9.3l-33.8-13.3v-15.6c14.4-11 24.5-27.5 26.9-46.4zm-180.7 305h-44.3v-43h44.3zm0-76.1v18.7h-44.3v-18.7zm197.9-261.2c.6 9.8-7.1 17.8-16.6 17.9v-33.7c8.8.2 16.1 7 16.6 15.8zm-156.6 18c-9.6-.1-17.6-8.4-16.6-18.7.8-8 7.7-15 16.6-15.1zm2.4-56.6c-2.8 2.5-2.4 5.3-2.4 8.5-2.3 0-4.9.3-7.1.9 0-18.9-2.9-47.4 23.5-73 14.5-14 33.5-21.7 53.6-21.7 43.1 0 77.1 34.9 77.1 78.2v16.5c-2.3-.6-4.9-.8-7.1-.9 0-3.2.3-5.6-1.9-8l-24.7-26.5c-2.5-2.7-6.6-3-9.6-.8-.4.3-42.8 31.6-95.8 25.1-2-.3-4 .3-5.6 1.7zm95.7 150.3c-17.2 10.4-38.9 10.4-56.1 0 0-9.2 0-15.9 0-24.8 17.5 7.5 38.8 7.4 56.1 0zm5.2-44.1c-.7.2-1.4.5-2 .9-18.7 12.5-44.3 12.1-62.5 0-.6-.4-1.3-.7-2-.9-13.6-10-22.4-26-22.4-44.1v-45.4-3.5c33 2 66.7-8.3 92.7-25l18.6 20v53.9c0 18-8.9 34.1-22.4 44.1z"/></g></svg>