<?xml version="1.0"?>
<svg xmlns="http://www.w3.org/2000/svg" viewBox="0 0 512 512" width="512" height="512"><g id="Outline"><path d="M480,192a135.634,135.634,0,0,1-5.336,37.773l15.367,4.454A151.53,151.53,0,0,0,496,192c0-71.52-48.621-132.473-118.234-148.227l-3.532,15.6C435.52,73.246,480,129.023,480,192Z"/><path d="M197.957,234.23l15.367-4.46A135.465,135.465,0,0,1,208,192c0-60.25,40.391-114,98.219-130.7l-4.438-15.375C237.145,64.6,192,124.664,192,192A151.424,151.424,0,0,0,197.957,234.23Z"/><path d="M448,192a103.578,103.578,0,0,1-1.07,14.852l15.836,2.3A119.757,119.757,0,0,0,464,192c0-52.684-35.25-99.973-85.719-114.992l-4.562,15.336A104.593,104.593,0,0,1,448,192Z"/><path d="M305.305,95.422l-5.977-14.844A120.086,120.086,0,0,0,229,226.289l15.328-4.578A104.1,104.1,0,0,1,305.305,95.422Z"/><path d="M24,448H152v32H128v16h96V480H200V448h80a8,8,0,0,0,7.59-5.469L315.5,358.787,312.215,480H296v16h96V480H375.786l-3.749-138.8a151.745,151.745,0,0,0,81.752-44.119l-11.57-11.055A135.746,135.746,0,0,1,371.6,325.035l-.437-16.183a118.734,118.734,0,0,0,56.793-31.145l-11.219-11.414A102.826,102.826,0,0,1,370.722,292.5l-1.781-65.924,102.8,59.389a16.122,16.122,0,0,0,7.813,2.027,16.638,16.638,0,0,0,13.269-26.363c-3.808-5.133-7.582-9.762-11.515-14.125a7.872,7.872,0,0,0-.578-.719,199.591,199.591,0,0,0-26.145-24.148A196.162,196.162,0,0,0,375,186.048a31.917,31.917,0,0,0-15-21.866V32.078A16.257,16.257,0,0,0,343.6,16a16.58,16.58,0,0,0-15.184,9.789,185.558,185.558,0,0,0-7.57,20.617,187.374,187.374,0,0,0-7.43,34.871,195.709,195.709,0,0,0,9.241,86.538A31.9,31.9,0,0,0,312,191.547c0,.218.06.419.064.635L229.294,240H88a8,8,0,0,0-7.59,5.469l-64,192A8,8,0,0,0,24,448ZM359.551,191.547a15.777,15.777,0,1,1-15.774-16A15.9,15.9,0,0,1,359.551,191.547ZM192,432H163.1l10.667-32H220.9l-10.667,32Zm67.1-96,10.667-32H316.9l-10.667,32Zm41.8,16-10.667,32H243.1l10.667-32Zm-58.667-16H195.1l10.667-32H252.9ZM236.9,352l-10.667,32H179.1l10.667-32Zm.867,48H284.9l-10.667,32H227.1Zm95.023-88.555c3.706.338,7.443.555,11.21.555,3.73,0,7.481-.216,11.229-.566l.432,15.983a129.668,129.668,0,0,1-23.305,0Zm3.742-15.74,15.058-45.174A8,8,0,0,0,344,240h-9.293l.488-17.459c.077-.085.152-.173.228-.259a28.279,28.279,0,0,0,17.392-.215l1.98,73.307A107.447,107.447,0,0,1,336.532,295.705ZM318.713,240h-1.007c.352-.309.686-.64,1.035-.952ZM332.9,256l-10.667,32H275.1l10.667-32Zm-74.667,32H211.1l10.667-32H268.9Zm-64,0H147.1l10.667-32H204.9ZM188.9,304l-10.667,32H131.1l10.667-32Zm-74.667,32H67.1l10.667-32H124.9ZM108.9,352,98.233,384H51.1l10.667-32Zm16.867,0H172.9l-10.667,32H115.1ZM156.9,400l-10.667,32H99.1l10.667-32ZM184,480H168V448h16Zm144.219,0,3.7-136.546c4,.333,8.024.546,12.079.546s8.1-.215,12.094-.547L359.781,480Zm140.09-223.086a8.26,8.26,0,0,0,.574.711,173.7,173.7,0,0,1,11.125,13.582l-.426.813-109.2-63.088a31.909,31.909,0,0,0,3.25-6.83,180.012,180.012,0,0,1,71.176,33.207A183.079,183.079,0,0,1,468.309,256.914Zm-139-173.773a172.159,172.159,0,0,1,6.839-32.059,170.7,170.7,0,0,1,6.957-18.949l.895-.055V159.569c-.076,0-.146-.022-.223-.022a31.455,31.455,0,0,0-6.78.771A179.749,179.749,0,0,1,329.309,83.141ZM316.666,208a32.1,32.1,0,0,0,4.626,6.131A175.665,175.665,0,0,1,291.748,240H261.282Zm-222.9,48H140.9l-10.667,32H83.1Zm-48,144H92.9L82.233,432H35.1Z"/><path d="M176,80a56.063,56.063,0,0,0,56-56,8,8,0,0,0-8-8,56.063,56.063,0,0,0-56,56A8,8,0,0,0,176,80Zm38.973-46.973a40.132,40.132,0,0,1-29.946,29.946A40.132,40.132,0,0,1,214.973,33.027Z"/><path d="M440,344a8,8,0,0,0-8,8,56.063,56.063,0,0,0,56,56,8,8,0,0,0,8-8A56.063,56.063,0,0,0,440,344Zm9.027,17.027a40.132,40.132,0,0,1,29.946,29.946A40.132,40.132,0,0,1,449.027,361.027Z"/><path d="M120,176a8,8,0,0,0,8-8,56.063,56.063,0,0,0-56-56,8,8,0,0,0-8,8A56.063,56.063,0,0,0,120,176Zm-9.027-17.027a40.132,40.132,0,0,1-29.946-29.946A40.132,40.132,0,0,1,110.973,158.973Z"/></g></svg>
