<svg enable-background="new 0 0 512.001 512.001" viewBox="0 0 512.001 512.001" xmlns="http://www.w3.org/2000/svg"><path d="m397.667 173.7c-4.557-34.01-21.31-65.298-47.175-88.102-26.102-23.012-59.659-35.685-94.492-35.685-34.827 0-68.38 12.669-94.479 35.674-25.863 22.796-42.619 54.077-47.183 88.079-.551 4.104 2.33 7.879 6.435 8.43 4.097.558 7.879-2.33 8.43-6.435 8.475-63.138 62.985-110.749 126.797-110.749 63.827 0 118.339 47.625 126.801 110.78.505 3.767 3.724 6.504 7.424 6.504.332 0 .667-.022 1.005-.067 4.105-.55 6.987-4.324 6.437-8.429z"/><path d="m391.329 202.217c-4.116-.508-7.855 2.411-8.364 6.521-7.907 63.882-62.49 112.055-126.965 112.055-64.522 0-119.11-48.212-126.976-112.146-.506-4.11-4.241-7.034-8.359-6.527-4.111.506-7.033 4.248-6.527 8.359 8.79 71.44 69.777 125.313 141.863 125.313 72.032 0 133.014-53.829 141.849-125.211.509-4.111-2.411-7.855-6.521-8.364z"/><path d="m299.396 240.148h-16.81v-128.639c0-5.329-4.335-9.664-9.664-9.664h-25.288c-2.269 0-4.476.803-6.212 2.261l-45.944 38.556c-4.009 3.365-4.625 9.23-1.402 13.353l15.068 19.284c1.598 2.044 3.994 3.377 6.573 3.657 2.582.28 5.205-.509 7.204-2.164l10.469-8.668v72.023h-21.223v.001c-5.329 0-9.664 4.336-9.664 9.664v22.934c0 5.329 4.335 9.664 9.664 9.664h87.229c5.329 0 9.664-4.336 9.664-9.664v-22.934c0-5.329-4.335-9.664-9.664-9.664zm-5.334 27.265h-76.559v-12.265h21.223c5.329 0 9.664-4.335 9.664-9.664v-88.702c-.001-3.784-2.127-7.135-5.551-8.745-3.425-1.611-7.361-1.113-10.277 1.301l-14.979 12.402-8.517-10.899 40.51-33.996h18.012v128.639c0 5.329 4.335 9.664 9.664 9.664h16.81z"/><path d="m459.383 429.1-67.57-105.693c7.606-1.576 14.464-5.872 19.187-12.126 5.445-7.21 7.617-16.44 5.958-25.321-1.404-7.518 2.397-15.151 9.243-18.562 8.087-4.028 14.143-11.323 16.616-20.013 2.472-8.69 1.164-18.081-3.591-25.764-4.025-6.503-3.238-14.993 1.913-20.646 6.085-6.678 9.098-15.668 8.264-24.664-.834-8.997-5.446-17.28-12.656-22.727-6.103-4.61-8.436-12.811-5.674-19.944 3.262-8.426 2.823-17.896-1.204-25.985-4.027-8.088-11.321-14.145-20.011-16.62-7.356-2.095-12.495-8.899-12.496-16.547-.002-9.035-3.833-17.708-10.51-23.795s-15.668-9.1-24.663-8.269c-7.618.706-14.865-3.785-17.63-10.916-3.266-8.425-9.971-15.128-18.396-18.392-8.425-3.263-17.896-2.827-25.984 1.199-6.847 3.407-15.23 1.841-20.383-3.81-6.087-6.676-14.761-10.505-23.796-10.505s-17.708 3.829-23.797 10.504c-5.153 5.65-13.537 7.218-20.383 3.81-8.089-4.026-17.559-4.462-25.984-1.199-8.425 3.264-15.13 9.967-18.396 18.392-2.764 7.131-10.023 11.62-17.629 10.916-8.999-.832-17.986 2.181-24.663 8.269-6.677 6.087-10.508 14.76-10.51 23.795-.001 7.648-5.14 14.453-12.496 16.547-8.69 2.474-15.984 8.532-20.011 16.62s-4.466 17.559-1.204 25.985c2.761 7.132.428 15.334-5.674 19.944-7.209 5.447-11.822 13.73-12.656 22.727-.833 8.996 2.179 17.986 8.264 24.664 5.151 5.653 5.938 14.143 1.913 20.647-4.755 7.683-6.063 17.074-3.591 25.764 2.473 8.69 8.529 15.985 16.616 20.013 6.846 3.411 10.647 11.044 9.243 18.562-1.659 8.882.513 18.111 5.958 25.321 4.723 6.253 11.581 10.55 19.187 12.126l-67.57 105.693c-2.487 3.891-2.545 8.761-.152 12.71s6.746 6.149 11.337 5.746l65.948-5.803 22.413 62.293c1.564 4.345 5.385 7.364 9.974 7.878.459.051.916.077 1.37.077 4.079 0 7.863-2.049 10.101-5.549l82.392-128.878 82.391 128.876c2.238 3.501 6.021 5.549 10.101 5.549.454 0 .912-.025 1.371-.077 4.589-.515 8.41-3.533 9.974-7.879l22.414-62.293 65.947 5.803c4.601.403 8.945-1.797 11.338-5.745 2.392-3.948 2.334-8.818-.153-12.708zm-390.872 2.984 65.878-103.047c2.344 2.383 4.016 5.439 4.659 8.873 1.211 6.472 4.393 12.375 9 16.946l-46.915 74.357zm77.425 10.352-2.849-7.919c-1.847-5.133-6.932-8.389-12.369-7.907l-10.808.951 40.961-64.921c5.997 1.919 12.493 2.073 18.643.324 5.19-1.476 10.67-.368 14.865 2.691zm18.293 50.841-11.852-32.941 52.314-82.915c4.363 3.922 9.757 6.637 15.619 7.733 4.423.826 8.933.702 13.236-.302zm96.444-132.164c-.48-.106-.97-.163-1.462-.174-1.068-.106-2.138-.178-3.211-.178-1.072 0-2.141.072-3.209.178-.495.01-.986.068-1.468.174-5.236.76-10.321 2.79-14.728 6.117-3.909 2.95-8.715 4.078-13.53 3.18-4.815-.9-8.887-3.689-11.467-7.854-.546-.881-1.141-1.719-1.761-2.532-.095-.124-.191-.247-.295-.365-7.979-10.15-21.515-14.709-34.132-11.122-4.711 1.34-9.6.658-13.765-1.921s-6.955-6.651-7.856-11.466c-1.921-10.265-8.729-18.744-17.8-23.104-.464-.271-.944-.487-1.436-.649-2.962-1.249-6.132-2.085-9.444-2.392-4.877-.453-9.189-2.855-12.141-6.764s-4.083-8.714-3.183-13.53c2.627-14.071-4.486-28.356-17.299-34.739-4.384-2.184-7.537-5.982-8.878-10.693-1.34-4.712-.659-9.601 1.919-13.766 7.534-12.171 6.061-28.062-3.581-38.643-3.3-3.62-4.867-8.301-4.416-13.178.452-4.878 2.853-9.19 6.762-12.143 11.421-8.629 15.789-23.978 10.62-37.327-1.769-4.568-1.54-9.498.644-13.883 2.183-4.385 5.98-7.539 10.692-8.88 13.767-3.921 23.384-16.656 23.387-30.97.001-4.899 1.995-9.413 5.615-12.714 3.62-3.3 8.3-4.871 13.178-4.418 14.259 1.321 27.821-7.083 32.995-20.43 1.771-4.567 5.262-8.058 9.83-9.827 4.567-1.769 9.499-1.542 13.883.641 12.816 6.377 28.502 3.445 38.148-7.131 3.301-3.619 7.816-5.612 12.715-5.612s9.414 1.993 12.715 5.612c9.645 10.576 25.333 13.508 38.148 7.131 4.385-2.182 9.315-2.41 13.883-.641s8.059 5.26 9.829 9.827c5.174 13.346 18.734 21.749 32.996 20.43 4.875-.453 9.556 1.118 13.177 4.418 3.62 3.301 5.614 7.815 5.615 12.714.002 14.314 9.619 27.049 23.387 30.97 4.711 1.341 8.508 4.495 10.691 8.88 2.184 4.385 2.412 9.315.643 13.883-5.169 13.349-.801 28.698 10.62 37.327 3.909 2.953 6.31 7.265 6.762 12.143s-1.116 9.558-4.416 13.178c-9.642 10.581-11.114 26.471-3.581 38.642 2.578 4.166 3.259 9.054 1.918 13.766-1.34 4.712-4.493 8.509-8.878 10.693-12.812 6.383-19.925 20.669-17.298 34.739.899 4.816-.231 9.62-3.183 13.53-2.952 3.909-7.264 6.311-12.142 6.764-3.315.308-6.487 1.145-9.452 2.396-.488.161-.965.376-1.425.644-9.072 4.359-15.882 12.839-17.803 23.105-.901 4.815-3.691 8.887-7.856 11.466s-9.055 3.26-13.765 1.922c-12.62-3.589-26.158.973-34.136 11.127-.1.114-.192.233-.284.352-.622.815-1.219 1.655-1.767 2.539-2.579 4.165-6.652 6.954-11.467 7.854-4.813.898-9.62-.229-13.53-3.18-4.405-3.327-9.489-5.356-14.727-6.116zm87.098 132.164-69.325-108.439c2.404.562 4.869.861 7.35.861 1.964 0 3.938-.18 5.894-.545 5.862-1.096 11.255-3.81 15.618-7.732l52.315 82.917zm33.511-66.667c-5.442-.479-10.522 2.773-12.369 7.908l-2.85 7.922-48.444-76.782c4.196-3.06 9.676-4.169 14.868-2.692 6.148 1.748 12.644 1.594 18.641-.324l40.959 64.919zm29.582 2.603-46.913-74.355c4.608-4.571 7.79-10.475 9.002-16.948.643-3.434 2.314-6.49 4.658-8.872l65.878 103.046z"/></svg>