<svg enable-background="new 0 0 374 374" viewBox="0 0 374 374" xmlns="http://www.w3.org/2000/svg"><g stroke="#000" stroke-miterlimit="10" stroke-width="5"><path d="m320.5 82.1-132.5-70.6c-2-1-4.3-1-6.3 0l-128.9 70.6c-2.1 1.2-3.4 3.4-3.4 5.8v92.2c.1 75.8 45 144.4 114.5 174.8l17.9 7.8c1.7.7 3.6.7 5.3 0l20.2-8.7c70.7-29.7 116.7-98.9 116.7-175.7v-90.4c0-2.4-1.3-4.7-3.5-5.8zm-9.7 96.2c0 71.5-42.9 135.9-108.8 163.6l-17.6 7.6-15.2-6.7c-64.7-28.3-106.5-92.1-106.6-162.7v-88.3l122.3-67 125.9 67.1z"/><path d="m136.2 175.9c-2.4-2.8-6.5-3.1-9.3-.7s-3.1 6.5-.7 9.3l34.9 40.8c2.3 2.7 6.4 3.1 9.2.8l81.2-66c2.8-2.3 3.3-6.5 1-9.3s-6.5-3.3-9.3-1l-76.2 62z"/></g></svg>