<svg enable-background="new 0 0 512 512" viewBox="0 0 512 512" xmlns="http://www.w3.org/2000/svg"><path d="m212.884 495.832h-172.463c-13.373 0-24.253-10.88-24.253-24.253s10.879-24.253 24.253-24.253h54.271c4.923 0 9.547-1.921 13.021-5.407 3.543-3.556 5.485-8.304 5.467-13.343v-.113c0-13.372 10.879-24.253 24.253-24.253h32.337c4.465 0 8.084-3.618 8.084-8.084s-3.62-8.084-8.084-8.084h-32.337c-22.289 0-40.421 18.132-40.421 40.421v.141c.003.996-.469 1.619-.751 1.903-.431.432-.958.651-1.568.651h-54.272c-22.289 0-40.421 18.132-40.421 40.421s18.132 40.421 40.421 40.421h172.463c4.465 0 8.084-3.618 8.084-8.084s-3.619-8.084-8.084-8.084z"/><path d="m482.358 118.568h-36.853c-3.032-6.367-9.532-10.779-17.042-10.779h-53.895c-7.51 0-14.009 4.412-17.042 10.779h-36.853c-4.465 0-8.084 3.619-8.084 8.084s3.62 8.084 8.084 8.084h35.032v2.204c0 15.613 11.492 28.507 26.735 29.991 1.879.183 3.752.189 5.602.019v34.637c0 16.33 12.549 29.569 28.57 30.139 8.11.272 15.815-2.656 21.656-8.292 5.841-5.637 9.059-13.213 9.059-21.33v-2.695h26.213l-14.232 163.68c-.387 4.447 2.906 8.368 7.353 8.754.238.021.475.03.71.03 4.148 0 7.679-3.175 8.044-7.385l14.438-166.04c12.727-3.326 22.147-14.923 22.147-28.68v-21.558c0-16.344-13.297-29.642-29.642-29.642zm-51.201 8.085v75.454c0 3.69-1.463 7.133-4.119 9.697-2.654 2.561-6.148 3.874-9.854 3.768-7.154-.255-12.975-6.528-12.975-13.982v-45.507c0-2.891-1.542-5.56-4.046-7.004-1.25-.72-2.644-1.08-4.038-1.08-1.399 0-2.798.363-4.051 1.089-2.455 1.422-5.246 2.03-8.069 1.754-6.803-.663-12.132-6.768-12.132-13.899v-10.289c0-1.486 1.209-2.695 2.695-2.695h53.895c1.485 0 2.695 1.208 2.695 2.695h-.001zm64.675 43.115c0 7.409-6.01 13.44-13.412 13.474-.052 0-.102 0-.155 0h-34.938v-48.505h35.032c7.43 0 13.474 6.044 13.474 13.474v21.557z"/><path d="m363.789 199.411c4.465 0 8.084-3.618 8.084-8.084s-3.62-8.084-8.084-8.084h-43.116c-4.465 0-8.084 3.618-8.084 8.084s3.62 8.084 8.084 8.084z"/><path d="m499.133 413.283c-16.382-27.972-46.758-46.799-81.449-46.799h-64.674c-7.43 0-13.474-6.044-13.474-13.474v-10.779c0-2.894-.424-5.762-1.246-8.511 7.291-5.406 12.025-14.073 12.025-23.826 0-16.344-13.297-29.642-29.642-29.642h-13.473v-2.695c0-7.511-4.411-14.01-10.779-17.043v-230.872c0-16.344-13.297-29.642-29.642-29.642s-29.642 13.298-29.642 29.642v88.926h-99.705c-16.345 0-29.642 13.298-29.642 29.642v21.558c0 13.756 9.42 25.353 22.146 28.683l14.438 166.039c.387 4.45 4.303 7.76 8.755 7.353 4.448-.386 7.74-4.306 7.353-8.754l-14.232-163.678h90.887v61.105c-6.368 3.033-10.779 9.532-10.779 17.043v2.695h-13.474c-16.345 0-29.642 13.298-29.642 29.642 0 9.753 4.734 18.42 12.025 23.826-.822 2.748-1.246 5.616-1.246 8.511v75.453c0 52.006 42.31 94.316 94.316 94.316h204.8c10.401 0 18.863-8.463 18.863-18.863v-32.339c0-17.02-4.533-33.002-12.452-46.802-.126-.246-.265-.484-.415-.715zm-245.828-383.641c0-7.43 6.044-13.474 13.474-13.474s13.474 6.044 13.474 13.474v229.053h-26.947v-229.053zm-115.78 153.6c-.052.001-.105.001-.155 0-7.401-.033-13.412-6.064-13.412-13.474v-21.558c0-7.43 6.044-13.474 13.474-13.474h99.705v48.505h-99.612zm358.307 309.895c0 1.486-1.209 2.695-2.695 2.695h-118.569c-43.091 0-78.147-35.056-78.147-78.147v-53.895c0-4.466-3.62-8.084-8.084-8.084-4.465 0-8.084 3.618-8.084 8.084v53.895c0 32.018 16.037 60.361 40.5 77.418-38.045-5.232-67.447-37.957-67.447-77.418v-53.895c0-4.466-3.62-8.084-8.084-8.084-4.465 0-8.084 3.618-8.084 8.084v53.895c0 32.018 16.037 60.361 40.5 77.42-38.045-5.232-67.447-37.957-67.447-77.418v-75.453c0-.942.099-1.878.291-2.792.792.065 1.595.097 2.404.097h64.674c4.465 0 8.084-3.618 8.084-8.084s-3.62-8.084-8.084-8.084h-64.674c-7.43 0-13.474-6.044-13.474-13.474s6.044-13.474 13.474-13.474h21.558c4.465 0 8.084-3.618 8.084-8.084v-10.779c0-1.486 1.209-2.695 2.695-2.695h43.116c1.485 0 2.695 1.208 2.695 2.695v10.779c0 4.466 3.62 8.084 8.084 8.084h21.558c7.43 0 13.474 6.044 13.474 13.474s-6.044 13.474-13.474 13.474h-10.779c-4.465 0-8.084 3.618-8.084 8.084s3.62 8.084 8.084 8.084h10.779c.808 0 1.61-.032 2.404-.097.193.914.291 1.85.291 2.792v10.779c0 16.344 13.297 29.642 29.642 29.642h64.674c23.523 0 44.653 10.449 58.992 26.947h-102.111c-13.256 0-26.347-3.377-37.859-9.765-3.904-2.165-8.826-.759-10.991 3.146-2.167 3.903-.758 8.824 3.146 10.99 13.906 7.717 29.71 11.795 45.704 11.795h112.964c4.157 8.256 6.894 17.348 7.885 26.947h-120.848c-13.255 0-26.345-3.376-37.856-9.764-3.905-2.168-8.825-.756-10.991 3.147-2.167 3.904-.758 8.825 3.146 10.99 13.904 7.716 29.707 11.793 45.7 11.793h121.263v24.256z"/></svg>