<svg enable-background="new 0 0 485 485" viewBox="0 0 485 485" xmlns="http://www.w3.org/2000/svg"><g stroke="#000" stroke-miterlimit="10" stroke-width="5"><path d="m410.9 11.1h-305.3c-16.8 0-35.6 12.6-35.6 30.7v400.6c0 17.4 14.1 31.6 31.5 31.6h309.4c2.2 0 4.1-1.8 4.1-4.1 0-2.2-1.8-4.1-4.1-4.1-12.7 0-22.7-10.3-22.7-23.4 0-13 10-23.3 22.6-23.4 2.2 0 4.2-1.8 4.2-4.1v-399.7c0-2.3-1.8-4.1-4.1-4.1zm-4 33.4h-88.2c-2.2 0-4.1 1.8-4.1 4.1 0 2.2 1.8 4.1 4.1 4.1h88.2v24.3h-39.4c-2.2 0-4.1 1.8-4.1 4.1 0 2.2 1.8 4.1 4.1 4.1h39.4v261.8h-38.4c-2.2 0-4.1 1.8-4.1 4.1s1.8 4.1 4.1 4.1h38.4v56h-297.2v-26.1h76.6c2.2 0 4.1-1.8 4.1-4.1s-1.8-4.1-4.1-4.1h-76.6v-53.6h34.7c2.2 0 4.1-1.8 4.1-4.1 0-2.2-1.8-4.1-4.1-4.1h-34.7v-270.9h20.8c2.2 0 4.1-1.8 4.1-4.1 0-2.2-1.8-4.1-4.1-4.1h-20.8v-16.8h297.2zm-328.8-2.7c0-11.6 11.7-20.5 23.4-22.3v391.4c-9.3 0-17.6 4-23.4 10.4zm302 400.6c0 9.4 3.8 17.7 10 23.4h-288.6c-11.3 0-20.8-8.1-22.9-18.8h223.2c2.2 0 4.1-1.8 4.1-4.1 0-2.2-1.8-4.1-4.1-4.1h-223.4c.3-2.2 1-4.4 1.9-6.3h51.7c2.2 0 4.1-1.8 4.1-4.1 0-2.2-1.8-4.1-4.1-4.1h-45.5c4.1-3.4 9.3-5.4 15-5.4h4.1.1s0 0 .1 0h284.4c-6.3 5.9-10.1 14.2-10.1 23.5z"/><path d="m260 291.9c44.7 0 81-36.3 81-81s-36.3-81-81-81-81 36.3-81 81 36.3 81 81 81zm0-153.9c40.2 0 72.9 32.7 72.9 72.9s-32.7 72.9-72.9 72.9-72.9-32.7-72.9-72.9 32.7-72.9 72.9-72.9z"/><path d="m227.1 243.8c4.6 4.6 7.6 10.4 8.6 16.8.2 1.4 1.2 2.6 2.4 3.1.5.2 1 .3 1.6.3.8 0 1.7-.3 2.4-.8 5.3-3.8 11.5-5.8 17.9-5.8s12.7 2 17.9 5.8c1.1.8 2.6 1 3.9.5s2.2-1.7 2.4-3.1c1-6.4 4-12.2 8.6-16.8s10.4-7.6 16.8-8.6c1.4-.2 2.6-1.2 3.1-2.5s.4-2.8-.5-3.9c-3.8-5.3-5.8-11.5-5.8-17.9s2-12.7 5.8-17.9c.8-1.1 1-2.6.5-3.9s-1.7-2.2-3.1-2.4c-6.4-1-12.2-4-16.8-8.6s-7.6-10.4-8.6-16.8c-.2-1.4-1.2-2.6-2.4-3.1-1.3-.5-2.8-.4-3.9.5-5.3 3.8-11.5 5.8-17.9 5.8-6.5 0-12.7-2-17.9-5.8-1.1-.8-2.6-1-3.9-.5s-2.2 1.7-2.4 3.1c-1 6.4-4 12.2-8.6 16.8s-10.4 7.6-16.8 8.6c-1.4.2-2.6 1.2-3.1 2.4-.5 1.3-.4 2.8.5 3.9 3.8 5.3 5.8 11.5 5.8 17.9s-2 12.7-5.8 17.9c-.8 1.1-1 2.6-.5 3.9s1.7 2.2 3.1 2.5c6.3 1.1 12.1 4 16.7 8.6zm-9.8-50.6c5.8-1.9 11.1-5.1 15.5-9.5s7.6-9.7 9.5-15.5c5.4 2.8 11.5 4.2 17.7 4.2s12.2-1.5 17.7-4.2c1.9 5.8 5.1 11.1 9.5 15.5s9.7 7.6 15.5 9.5c-2.8 5.4-4.2 11.5-4.2 17.7s1.5 12.2 4.2 17.7c-5.8 1.9-11.1 5.1-15.5 9.5s-7.6 9.7-9.5 15.5c-5.4-2.8-11.5-4.2-17.7-4.2s-12.2 1.5-17.7 4.2c-1.9-5.8-5.1-11.1-9.5-15.5s-9.7-7.6-15.5-9.5c2.8-5.4 4.2-11.5 4.2-17.7s-1.4-12.2-4.2-17.7z"/><path d="m172.3 247.2c-5.7 17.3 4 43.3 4.5 44.5.4 1.1 1.3 1.9 2.3 2.3.7.3 16.7 6.3 31.9 6.3 4.8 0 9-.6 12.6-1.8 8.2 16.3 33.5 27.8 34.6 28.3.5.2 1.1.4 1.7.4s1.1-.1 1.7-.4c1.2-.5 26.4-12 34.6-28.3 3.6 1.2 7.8 1.8 12.6 1.8 15.2 0 31.2-6 31.9-6.3 1.1-.4 1.9-1.3 2.3-2.3.5-1.2 10.2-27.2 4.5-44.5 16.3-8.2 27.8-33.5 28.3-34.6s.5-2.3 0-3.3c-.5-1.2-12-26.4-28.3-34.6 5.7-17.3-4-43.3-4.5-44.5-.4-1.1-1.3-1.9-2.3-2.3-.7-.3-16.7-6.3-31.9-6.3-4.8 0-9 .6-12.6 1.8-8.2-16.4-33.4-27.9-34.6-28.4-1.1-.5-2.3-.5-3.3 0-1.2.5-26.4 12-34.6 28.3-3.6-1.2-7.8-1.8-12.6-1.8-15.2 0-31.2 6-31.9 6.3-1.1.4-1.9 1.3-2.3 2.3-.5 1.2-10.2 27.2-4.5 44.5-16.3 8.2-27.8 33.5-28.3 34.6s-.5 2.3 0 3.3c.5 1.2 12 26.5 28.2 34.7zm6.5-66.5c1.2-.4 2.1-1.2 2.6-2.3s.4-2.4-.2-3.5c-5.7-10.6-.6-31.1 2.6-40.2 4.4-1.5 16.3-5.2 27.3-5.2 5.3 0 9.7.9 12.9 2.6 1.1.6 2.3.6 3.5.2 1.1-.5 2-1.4 2.3-2.6 3.5-11.6 21.6-22.4 30.2-26.6 8.6 4.2 26.7 15 30.2 26.6.4 1.2 1.2 2.1 2.3 2.6s2.4.4 3.5-.2c3.2-1.7 7.5-2.6 12.9-2.6 11 0 22.9 3.7 27.3 5.2 3.1 9 8.3 29.5 2.6 40.2-.6 1.1-.6 2.3-.2 3.5.5 1.1 1.4 2 2.6 2.3 11.6 3.5 22.4 21.6 26.6 30.2-4.2 8.6-15 26.7-26.6 30.2-1.2.4-2.1 1.2-2.6 2.3s-.4 2.4.2 3.5c5.7 10.6.6 31.1-2.5 40.2-4.4 1.5-16.3 5.2-27.3 5.2-5.3 0-9.7-.9-12.9-2.6-1.1-.6-2.3-.6-3.5-.2-1.1.5-2 1.4-2.3 2.6-3.5 11.6-21.6 22.4-30.2 26.6-8.6-4.2-26.7-15-30.2-26.6-.4-1.2-1.2-2.1-2.3-2.6-.5-.2-1-.3-1.6-.3-.7 0-1.3.2-1.9.5-3.2 1.7-7.5 2.6-12.9 2.6-11 0-22.9-3.7-27.3-5.2-3.1-9-8.3-29.5-2.6-40.2.6-1.1.6-2.3.2-3.5-.5-1.1-1.4-2-2.6-2.3-11.6-3.5-22.4-21.6-26.6-30.2 4.1-8.6 15-26.7 26.5-30.2z"/><path d="m318.7 447.1h44.8c2.2 0 4.1-1.8 4.1-4.1 0-2.2-1.8-4.1-4.1-4.1h-44.8c-2.2 0-4.1 1.8-4.1 4.1.1 2.2 1.9 4.1 4.1 4.1z"/><path d="m309.7 376.7h-78.7c-2.2 0-4.1 1.8-4.1 4.1s1.8 4.1 4.1 4.1h78.7c2.2 0 4.1-1.8 4.1-4.1s-1.8-4.1-4.1-4.1z"/><path d="m239 52.6h53.8c2.2 0 4.1-1.8 4.1-4.1 0-2.2-1.8-4.1-4.1-4.1h-53.8c-2.2 0-4.1 1.8-4.1 4.1.1 2.3 1.9 4.1 4.1 4.1z"/><path d="m241.1 204.5h37.9c2.2 0 4.1-1.8 4.1-4.1s-1.8-4.1-4.1-4.1h-37.9c-2.2 0-4.1 1.8-4.1 4.1s1.8 4.1 4.1 4.1z"/><path d="m272.4 220.3h-24.9c-2.2 0-4.1 1.8-4.1 4.1 0 2.2 1.8 4.1 4.1 4.1h24.9c2.2 0 4.1-1.8 4.1-4.1s-1.8-4.1-4.1-4.1z"/></g></svg>