<svg enable-background="new 0 0 388.4 388.4" viewBox="0 0 388.4 388.4" xmlns="http://www.w3.org/2000/svg"><path d="m300.4 155.8c-10.5 0-20.6 2.2-30 6l-12.7-24.7v-39.3c0-2.2-1.5-4.5-3.7-5.2l-30-11.2c-3-1.1-6 .4-7.1 3.4s.4 6 3.4 7.1l26.6 9.7v31.8h-109.8v-10.9h13.5c3 0 5.6-2.6 5.6-5.6s-2.6-5.6-5.6-5.6h-34.8c-3 0-5.6 2.6-5.6 5.6s2.6 5.6 5.6 5.6h10.1v15.4l-10.9 23.5c-8.2-3.4-17.6-5.2-27-5.2-41.6 0-75.6 33.7-75.6 75.6s33.7 75.6 75.6 75.6c39.7 0 72.3-31.1 75.3-70h24.3c1.9 0 3.4-.7 4.5-2.2l58.8-85 9.4 17.6c-21.3 12.7-35.6 36.7-35.6 63.7 0 41.6 33.7 75.6 75.6 75.6s75.6-33.7 75.6-75.6-33.6-75.7-75.5-75.7zm-212.4 140.1c-35.6 0-64.4-28.8-64.4-64.4s28.8-64.4 64.4-64.4c7.9 0 15.4 1.5 22.1 4.1l-27.3 58v.4c-.4.7-.4 1.1-.4 1.9v.4c0 .7 0 1.1.4 1.9v.4c0 .4 0 .4.4.7 0 .4.4.4.7.7v.4c.4.4 1.1.7 1.5 1.1h.4c.7.4 1.1.4 1.9.4h64c-2.6 32.5-30 58.4-63.7 58.4zm8.7-70.1 23.6-49.8c17.6 10.1 30 28.5 31.8 49.8zm88 0h-21.7c-1.9-25.8-16.9-47.9-38.2-60.3l10.1-21.3h106zm115.3 70.1c-35.6 0-64.4-28.8-64.4-64.4 0-22.8 12-42.7 30-54.3l29.6 56.9c1.1 1.9 3 3 4.9 3 .7 0 1.9-.4 2.6-.7 2.6-1.5 3.7-4.9 2.2-7.5l-29.6-56.9c7.9-3 16.1-4.9 24.7-4.9 35.6 0 64.4 28.8 64.4 64.4s-28.8 64.4-64.4 64.4z" stroke="#000" stroke-miterlimit="10" stroke-width="5"/></svg>