<svg enable-background="new 0 0 512 512" viewBox="0 0 512 512" xmlns="http://www.w3.org/2000/svg"><g stroke="#000" stroke-miterlimit="10" stroke-width="5"><path d="m350.6 337c3.9 0 7-3.1 7.1-6.9.1-10.3.8-21.2 2.1-32.3.5-3.8-2.2-7.3-6-7.9s-7.3 2.2-7.9 6v.3c-1.3 11.6-2 23-2.2 33.7-.1 3.9 3 7 6.9 7.1z"/><path d="m486 479h-88.7v-70.7c22.4-4 39.7-19.3 39.7-74.6 0-57.9-20.7-170.7-58.7-170.7-7.2 0-13.9 4.1-19.8 11.2-11.3-46.5-25.3-70.2-41.5-70.2-6.4 0-25.7 0-43.4 77.9-9.7 44.1-14.9 89.2-15.3 134.3 0 63.7 14.3 85.7 39.7 91.6v71.2h-79v-28.7h11c3.9 0 7-3.1 7-7s-3.1-7-7-7h-11v-50.3c0-3.9-3.1-7-7-7s-7 3.1-7 7v9.7h-128v-9.7c0-3.9-3.1-7-7-7s-7 3.1-7 7v50.3h-11c-3.9 0-7 3.1-7 7s3.1 7 7 7h11v28.7h-37c-3.9 0-7 3.1-7 7s3.1 7 7 7h460c3.9 0 7-3.1 7-7s-3.1-7-7-7zm-107.7-302c19.6 0 44.7 87.9 44.7 156.7 0 62-21.7 62-44.7 62s-44.7 0-44.7-62c.1-68.8 25.1-156.7 44.7-156.7zm-31.9 227.2c4.1 2 8.4 3.3 12.9 4.1v70.7h-23.3v-71.1c3.6-.8 7.1-2 10.4-3.7zm-74.1-88c.4-44.1 5.5-88.1 15-131.2 12-53 24.7-67 29.7-67 6.2 0 19.6 19.5 31 72.8-18.5 37.2-28.3 103-28.3 142.9 0 31 5.4 49.4 14.2 60.4-5.5 1.2-11.2 1.8-16.8 1.6-22.1 0-44.8 0-44.8-79.5zm-195.3 93.5h128v26.7h-128zm0 40.6h128v28.7h-128zm235 28.7v-69.4c1.6.1 3.3.1 5 .1s3.3 0 5-.1v69.4zm61.3 0v-69.4c1.7 0 3.3.1 5 .1s3.3 0 5-.1v69.4z"/><path d="m89.9 104.7h59.6c15.4 0 27.9-12.5 27.9-27.9 0-13.2-9.2-24.5-22-27.3-3.9-14.8-17.3-25.2-32.6-25.2-2.3 0-4.6.2-6.8.7-14.6-10.3-34.8-6.8-45.1 7.9-2 2.9-3.6 6.1-4.6 9.5-14.8 13-16.2 35.5-3.2 50.3 6.8 7.6 16.5 12 26.8 12zm-13.1-52.9c1.3-1 2.3-2.5 2.6-4.2 2-9.9 11.7-16.3 21.7-14.3 3.2.7 6.2 2.2 8.6 4.4 1.9 1.7 4.5 2.2 6.9 1.4 10.3-3.4 21.5 2.1 24.9 12.5.5 1.5.8 3.1 1 4.7.3 3.8 3.6 6.6 7.3 6.4 7.7.1 13.9 6.4 13.8 14.1s-6.4 13.9-14.1 13.8h-59.6c-12 0-21.6-9.7-21.6-21.7 0-6.6 3.1-13 8.5-17.1z"/><path d="m392 112.7h42.6c15.2 0 27.5-12.3 27.5-27.5 0-7.7-3.2-15-8.9-20.2-4.2-13.2-18.3-20.5-31.5-16.3-2.2.7-4.2 1.7-6.1 2.9-12.9-2.2-25.5 5.5-29.3 18-11.7 3.2-18.5 15.3-15.3 27 2.5 9.5 11.2 16.1 21 16.1zm-.2-29.9c3.8.2 7-2.7 7.3-6.4.5-6.6 6.3-11.6 12.9-11.1 1 .1 2 .3 2.9.6 2.4.8 5 .2 6.9-1.4 4.5-4.1 11.6-3.8 15.7.8 1.3 1.5 2.2 3.3 2.6 5.2.3 1.7 1.3 3.1 2.6 4.2 5.9 4.5 7.1 12.9 2.6 18.8-2.5 3.4-6.5 5.3-10.7 5.3h-42.6c-4.4 0-7.9-3.6-7.9-8s3.4-7.8 7.7-8z"/><path d="m167.5 136.2c-11.6-7.6-27.2-4.3-34.7 7.3-1.2 1.9-2.2 4-2.9 6.1-11.2 10.2-11.9 27.6-1.7 38.8 5.2 5.7 12.6 8.9 20.3 8.9h42.5c12.1 0 22-9.8 22-21.9 0-9.9-6.6-18.6-16.2-21.2-3.4-10.9-13.5-18.3-24.9-18.4-1.4 0-2.9.2-4.4.4zm16.5 24.8c.3 3.8 3.5 6.6 7.2 6.4 4.4.1 7.8 3.8 7.7 8.2-.1 4.3-3.6 7.7-7.9 7.7h-42.6c-7.4 0-13.5-6-13.5-13.4 0-4.2 2-8.2 5.3-10.7 1.3-1 2.3-2.5 2.6-4.2 1.2-6 7.1-9.9 13.1-8.6 1.9.4 3.8 1.3 5.2 2.6 1.9 1.7 4.5 2.2 6.9 1.4 6.3-2.1 13.1 1.3 15.3 7.6.4 1 .6 2 .7 3z"/></g></svg>