<svg enable-background="new 0 0 464.87 464.87" viewBox="0 0 464.87 464.87" xmlns="http://www.w3.org/2000/svg"><path d="m283.86 280.931c42.008-17.061 69.234-58.161 68.559-103.496 0-62.309-53.832-113-120-113s-120 50.691-120 113c-.675 45.335 26.55 86.435 68.559 103.496l.93.504 6.353 10.424c-11.342 6.565-15.214 21.081-8.65 32.422.863 1.491 1.886 2.884 3.051 4.154-8.894 9.75-8.201 24.863 1.548 33.758 4.429 4.04 10.215 6.268 16.209 6.242h64c13.197.058 23.942-10.594 24-23.791.026-5.995-2.202-11.781-6.242-16.209 8.859-9.657 8.211-24.667-1.446-33.525-1.27-1.165-2.662-2.188-4.154-3.051l6.353-10.424zm-19.442 71.504h-64c-4.418 0-8-3.582-8-8s3.582-8 8-8h64c4.418 0 8 3.582 8 8s-3.582 8-8 8zm0-32h-64c-4.418 0-8-3.582-8-8s3.582-8 8-8h64c4.418 0 8 3.582 8 8s-3.582 8-8 8zm12.18-53.769-3.199 1.738c-1.238.675-2.277 1.664-3.012 2.867l-10.461 17.164h-3.508v-60.688l37.656-37.656-11.312-11.313-40 40c-1.5 1.5-2.343 3.534-2.344 5.656v64h-16v-64c-.001-2.122-.844-4.156-2.344-5.656l-40-40-11.312 11.312 37.656 37.656v60.688h-3.508l-10.461-17.164c-.735-1.203-1.774-2.192-3.012-2.867l-3.199-1.738c-.257-.137-.52-.261-.789-.371-36.169-14.551-59.637-49.878-59.031-88.859 0-53.484 46.652-97 104-97s104 43.516 104 97c.606 38.981-22.863 74.308-59.031 88.859-.269.111-.533.235-.789.372z"/><path d="m80.417 57.602h16v53.664h-16z" transform="matrix(.4472 -.8944 .8944 .4472 -26.6442 125.7576)"/><path d="m348.101 76.448h53.664v16h-53.664z" transform="matrix(.9486 -.3164 .3164 .9486 -7.4586 122.956)"/><path d="m32.418 168.435h48v16h-48z"/><path d="m384.418 168.435h48v16h-48z"/><path d="m61.588 276.433h53.664v16h-53.664z" transform="matrix(.8944 -.4472 .4472 .8944 -117.8667 69.5699)"/><path d="m368.424 257.615h16v53.664h-16z" transform="matrix(.4472 -.8944 .8944 .4472 -46.3343 493.9232)"/><path d="m224.418 8.435h16v40h-16z"/><path d="m464.418 384.435v-16c-104.371 0-215.281 25.23-215.996 72h-32.008c-.715-46.77-111.625-72-215.996-72v16c117.199 0 199.037 29.414 199.957 56h-199.957v16h464v-16h-199.957c.92-26.586 82.758-56 199.957-56z"/><path d="m68.435 344.309h16v152.24h-16z" transform="matrix(.0526 -.9986 .9986 .0526 -347.4305 474.6621)"/><path d="m312.314 412.43h152.24v16h-152.24z" transform="matrix(.9986 -.0527 .0527 .9986 -21.6328 21.071)"/></svg>