<svg enable-background="new 0 0 210.954 210.954" viewBox="0 0 210.954 210.954" xmlns="http://www.w3.org/2000/svg"><path d="m120.628 25.135c-1.331-1.333-3.495-1.333-4.826 0-5.323 5.323-13.986 5.323-19.309 0-2.577-2.579-3.999-6.008-3.999-9.655s1.42-7.076 3.999-9.655c1.333-1.333 1.333-3.494 0-4.826-1.331-1.333-3.495-1.333-4.826 0-7.986 7.984-7.986 20.977 0 28.962 3.992 3.992 9.236 5.989 14.481 5.989s10.489-1.997 14.481-5.989c1.332-1.332 1.332-3.493-.001-4.826z"/><path d="m103.77 30.047c-1.884 0-3.413 1.529-3.413 3.413v6.827c0 1.884 1.529 3.413 3.413 3.413s3.413-1.527 3.413-3.413v-6.827c0-1.884-1.529-3.413-3.413-3.413z"/><path d="m105.814 40.966c-.591-.44-1.307-.679-2.045-.679-4.388 0-15.942 10.921-20.849 16.21-7.619 8.209-16.698 20.35-16.698 31.577 0 6.223 1.557 11.496 4.625 15.674.643.875 1.664 1.393 2.751 1.393h60.341c1.087 0 2.108-.517 2.751-1.393 3.069-4.178 4.625-9.452 4.625-15.674.002-20.328-34.052-46.024-35.501-47.108zm26.287 57.348h-56.662c-1.606-2.777-2.389-6.146-2.389-10.24 0-15 23.453-36.459 30.203-40.472 9.974 7.779 31.237 27.139 31.237 40.472 0 4.094-.783 7.463-2.389 10.24z"/><path d="m134.49 98.314h-61.44c-1.884 0-3.413 1.529-3.413 3.413v17.067c0 1.884 1.529 3.413 3.413 3.413h61.44c1.884 0 3.413-1.527 3.413-3.413v-17.067c0-1.884-1.529-3.413-3.413-3.413zm-3.413 17.067h-54.614v-10.24h54.613v10.24z"/><path d="m147.37 116.63c-.648-.79-1.618-1.249-2.64-1.249h-81.92c-1.022 0-1.992.459-2.64 1.249s-.908 1.831-.707 2.833l3.413 17.067c.319 1.596 1.72 2.744 3.347 2.744h75.093c1.626 0 3.028-1.149 3.347-2.744l3.413-17.067c.202-1.002-.057-2.043-.706-2.833zm-8.851 15.817h-69.497l-2.048-10.24h73.593z"/><path d="m199.343 132.447h-187.733c-1.884 0-3.413 1.529-3.413 3.413v71.68c0 1.884 1.529 3.413 3.413 3.413h187.733c1.884 0 3.413-1.527 3.413-3.413v-71.68c.001-1.884-1.529-3.413-3.413-3.413zm-3.413 71.68h-180.907v-64.853h180.907z"/><path d="m105.477 166.58c-10.351 0-18.773 8.422-18.773 18.773v22.187c0 1.884 1.529 3.413 3.413 3.413h30.72c1.884 0 3.413-1.527 3.413-3.413v-22.187c0-10.35-8.423-18.773-18.773-18.773zm11.946 37.547h-23.893v-18.773c0-6.588 5.359-11.947 11.947-11.947s11.947 5.359 11.947 11.947v18.773z"/><path d="m144.73 149.514c-5.647 0-10.24 4.593-10.24 10.24v34.133c0 1.884 1.529 3.413 3.413 3.413h13.653c1.884 0 3.413-1.527 3.413-3.413v-34.133c.001-5.648-4.592-10.24-10.239-10.24zm3.413 40.96h-6.827v-30.72c0-1.882 1.531-3.413 3.413-3.413s3.413 1.531 3.413 3.413v30.72z"/><path d="m175.45 149.514c-5.647 0-10.24 4.593-10.24 10.24v34.133c0 1.884 1.529 3.413 3.413 3.413h13.653c1.884 0 3.413-1.527 3.413-3.413v-34.133c.001-5.648-4.592-10.24-10.239-10.24zm3.413 40.96h-6.827v-30.72c0-1.882 1.531-3.413 3.413-3.413s3.413 1.531 3.413 3.413v30.72z"/><path d="m35.503 149.514c-5.647 0-10.24 4.593-10.24 10.24v34.133c0 1.884 1.529 3.413 3.413 3.413h13.654c1.884 0 3.413-1.527 3.413-3.413v-34.133c0-5.648-4.592-10.24-10.24-10.24zm3.414 40.96h-6.827v-30.72c0-1.882 1.531-3.413 3.413-3.413s3.413 1.531 3.413 3.413v30.72z"/><path d="m66.223 149.514c-5.647 0-10.24 4.593-10.24 10.24v34.133c0 1.884 1.529 3.413 3.413 3.413h13.654c1.884 0 3.413-1.527 3.413-3.413v-34.133c0-5.648-4.592-10.24-10.24-10.24zm3.414 40.96h-6.827v-30.72c0-1.882 1.531-3.413 3.413-3.413 1.883 0 3.413 1.531 3.413 3.413v30.72z"/><path d="m32.09 71.007h-20.48c-1.884 0-3.413 1.529-3.413 3.413v61.44c0 1.884 1.529 3.413 3.413 3.413h20.48c1.884 0 3.413-1.527 3.413-3.413v-61.44c0-1.884-1.529-3.413-3.413-3.413zm-3.413 61.44h-13.654v-54.613h13.653v54.613z"/><path d="m38.193 58.666c-.647-.828-1.638-1.312-2.69-1.312h-27.306c-1.051 0-2.043.485-2.69 1.312-.647.829-.875 1.91-.621 2.929l3.413 13.653c.379 1.519 1.744 2.586 3.311 2.586h20.48c1.567 0 2.932-1.065 3.311-2.586l3.413-13.653c.256-1.019.026-2.101-.621-2.929zm-8.767 12.341h-15.15l-1.707-6.827h18.563z"/><path d="m205.446 58.666c-.647-.828-1.638-1.312-2.69-1.312h-27.306c-1.051 0-2.043.485-2.69 1.312-.647.829-.876 1.91-.621 2.929l3.413 13.653c.379 1.519 1.744 2.586 3.311 2.586h20.48c1.567 0 2.932-1.065 3.311-2.586l3.413-13.653c.257-1.019.026-2.101-.621-2.929zm-8.767 12.341h-15.15l-1.707-6.827h18.563z"/><path d="m199.343 71.007h-20.48c-1.884 0-3.413 1.529-3.413 3.413v61.44c0 1.884 1.529 3.413 3.413 3.413h20.48c1.884 0 3.413-1.527 3.413-3.413v-61.44c.001-1.884-1.529-3.413-3.413-3.413zm-3.413 61.44h-13.653v-54.613h13.653z"/><path d="m35.437 60.098-10.24-51.2c-.319-1.596-1.72-2.744-3.347-2.744-1.626 0-3.028 1.149-3.347 2.744l-10.24 51.2c-.201 1.002.058 2.043.707 2.833s1.618 1.249 2.64 1.249h20.48c1.022 0 1.992-.459 2.64-1.249.649-.79.908-1.831.707-2.833zm-19.665-2.744 6.077-30.382 6.076 30.382z"/><path d="m202.69 60.098-10.24-51.2c-.319-1.596-1.72-2.744-3.347-2.744-1.626 0-3.028 1.149-3.347 2.744l-10.24 51.2c-.201 1.002.058 2.043.707 2.833.648.79 1.618 1.249 2.64 1.249h20.48c1.022 0 1.992-.459 2.64-1.249.649-.79.908-1.831.707-2.833zm-19.664-2.744 6.077-30.382 6.076 30.382z"/></svg>