<svg enable-background="new 0 0 480.1 480.1" viewBox="0 0 480.1 480.1" xmlns="http://www.w3.org/2000/svg"><path d="m240.135.05c-96.05-.014-182.858 57.239-220.663 145.536l-2.992.992 1.16 3.48c-49.776 122.766 9.393 262.639 132.159 312.415 28.673 11.626 59.324 17.594 90.265 17.577 132.548.02 240.016-107.416 240.036-239.964s-107.416-240.017-239.965-240.036zm188.253 361.004-12.324-12.316v-28.688c.014-1.238-.26-2.462-.8-3.576l-31.2-62.312v-30.112c0-2.674-1.335-5.172-3.56-6.656l-24-16c-1.881-1.256-4.206-1.657-6.4-1.104l-29.392 7.344-49.368-21.184-6.792-47.584 18.824-18.816h40.408l13.6 20.44c1.228 1.838 3.163 3.087 5.344 3.448l48 8c1.286.216 2.604.111 3.84-.304l44.208-14.736c37.079 71.155 33.113 156.736-10.388 224.156zm-32.996-282.172-13.008 8.672-36.264-7.256-23.528-7.832c-1.44-.489-2.99-.551-4.464-.176l-29.744 7.432-13.04-4.344 9.664-19.328h27.056c1.241.001 2.465-.286 3.576-.84l27.68-13.84c19.062 9.95 36.598 22.582 52.072 37.512zm-242.952-44.968 19.2 12.8c.944.628 2.01 1.048 3.128 1.232l38.768 6.464-3.784 11.32-20.2 6.744c-1.809.602-3.344 1.83-4.328 3.464l-22.976 38.288-36.904 22.144-54.4 7.768c-3.943.557-6.875 3.93-6.88 7.912v24c0 2.122.844 4.156 2.344 5.656l13.656 13.656v13.744l-33.28-22.192-12.072-36.216c22.968-52.48 65.065-94.24 117.728-116.784zm-22.776 262.296-36.16-7.24-13.44-26.808v-18.8l29.808-29.808 11.032 22.072c1.355 2.712 4.128 4.425 7.16 4.424h51.472l21.672 36.12c1.446 2.407 4.048 3.879 6.856 3.88h22.24l-5.6 28.056-30.288 30.288c-1.503 1.499-2.349 3.533-2.352 5.656v20l-28.8 21.6c-2.014 1.511-3.2 3.882-3.2 6.4v28.896l-9.952-3.296-14.048-35.136v-78.464c.001-3.802-2.675-7.08-6.4-7.84zm-24.048 122.981c-75.429-56.589-107.328-154.365-79.784-244.549l6.648 19.936c.56 1.687 1.666 3.14 3.144 4.128l39.88 26.584-9.096 9.104c-1.5 1.5-2.344 3.534-2.344 5.656v24c-.001 1.241.286 2.465.84 3.576l16 32c1.108 2.21 3.175 3.784 5.6 4.264l33.6 6.712v73.448c-.001 1.016.192 2.024.568 2.968l16 40c.876 2.185 2.67 3.874 4.904 4.616l24 8c.802.272 1.642.412 2.488.416 4.418 0 8-3.582 8-8v-36l28.8-21.6c2.014-1.511 3.2-3.882 3.2-6.4v-20.688l29.656-29.656c1.115-1.117 1.875-2.54 2.184-4.088l8-40c.866-4.333-1.944-8.547-6.277-9.413-.515-.103-1.038-.155-1.563-.155h-27.472l-21.672-36.12c-1.446-2.407-4.048-3.879-6.856-3.88h-51.056l-13.744-27.576c-1.151-2.302-3.339-3.91-5.88-4.32-2.54-.439-5.133.399-6.936 2.24l-10.384 10.344v-12.688c0-2.122-.844-4.156-2.344-5.656l-13.656-13.656v-13.752l49.136-7.016c1.055-.153 2.07-.515 2.984-1.064l40-24c1.122-.674 2.062-1.614 2.736-2.736l22.48-37.464 21.192-7.072c2.393-.785 4.271-2.662 5.056-5.056l8-24c1.386-4.195-.891-8.72-5.086-10.106-.387-.128-.784-.226-1.186-.294l-46.304-7.72-8.136-5.424c50.343-16.386 104.869-14.358 153.856 5.72l-14.616 7.296h-30.112c-3.047-.017-5.838 1.699-7.2 4.424l-16 32c-1.971 3.954-.364 8.758 3.59 10.729.337.168.685.312 1.042.431l24 8c1.44.489 2.99.551 4.464.176l29.744-7.432 21.792 7.256c.312.112.633.198.96.256l40 8c2.08.424 4.244-.002 6.008-1.184l18.208-12.144c8.961 9.981 17.014 20.741 24.064 32.152l-39.36 13.12-42.616-7.104-14.08-21.12c-1.476-2.213-3.956-3.547-6.616-3.56h-48c-2.122 0-4.156.844-5.656 2.344l-24 24c-1.782 1.781-2.621 4.298-2.264 6.792l8 56c.403 2.769 2.223 5.126 4.8 6.216l56 24c1.604.695 3.394.838 5.088.408l28.568-7.144 17.464 11.664v27.72c-.014 1.238.26 2.462.8 3.576l31.2 62.312v30.112c0 2.122.844 4.156 2.344 5.656l16.736 16.744c-74.223 98.933-214.595 118.965-313.528 44.741z"/></svg>